%TF.GenerationSoftware,KiCad,Pcbnew,8.0.2-1*%
%TF.CreationDate,2025-02-24T08:21:49+03:00*%
%TF.ProjectId,PFC_CAN,5046435f-4341-44e2-9e6b-696361645f70,rev?*%
%TF.SameCoordinates,Original*%
%TF.FileFunction,Drillmap*%
%TF.FilePolarity,Positive*%
%FSLAX45Y45*%
G04 Gerber Fmt 4.5, Leading zero omitted, Abs format (unit mm)*
G04 Created by KiCad (PCBNEW 8.0.2-1) date 2025-02-24 08:21:49*
%MOMM*%
%LPD*%
G01*
G04 APERTURE LIST*
%ADD10C,0.050000*%
%ADD11C,0.200000*%
G04 APERTURE END LIST*
D10*
X6731000Y-7442200D02*
X11379200Y-7442200D01*
X11379200Y-12928600D01*
X6731000Y-12928600D01*
X6731000Y-7442200D01*
D11*
X6989277Y-13242584D02*
X6989277Y-13042584D01*
X6989277Y-13042584D02*
X7036896Y-13042584D01*
X7036896Y-13042584D02*
X7065467Y-13052108D01*
X7065467Y-13052108D02*
X7084515Y-13071155D01*
X7084515Y-13071155D02*
X7094039Y-13090203D01*
X7094039Y-13090203D02*
X7103562Y-13128298D01*
X7103562Y-13128298D02*
X7103562Y-13156869D01*
X7103562Y-13156869D02*
X7094039Y-13194965D01*
X7094039Y-13194965D02*
X7084515Y-13214012D01*
X7084515Y-13214012D02*
X7065467Y-13233060D01*
X7065467Y-13233060D02*
X7036896Y-13242584D01*
X7036896Y-13242584D02*
X6989277Y-13242584D01*
X7189277Y-13242584D02*
X7189277Y-13109250D01*
X7189277Y-13147346D02*
X7198801Y-13128298D01*
X7198801Y-13128298D02*
X7208324Y-13118774D01*
X7208324Y-13118774D02*
X7227372Y-13109250D01*
X7227372Y-13109250D02*
X7246420Y-13109250D01*
X7313086Y-13242584D02*
X7313086Y-13109250D01*
X7313086Y-13042584D02*
X7303562Y-13052108D01*
X7303562Y-13052108D02*
X7313086Y-13061631D01*
X7313086Y-13061631D02*
X7322610Y-13052108D01*
X7322610Y-13052108D02*
X7313086Y-13042584D01*
X7313086Y-13042584D02*
X7313086Y-13061631D01*
X7436896Y-13242584D02*
X7417848Y-13233060D01*
X7417848Y-13233060D02*
X7408324Y-13214012D01*
X7408324Y-13214012D02*
X7408324Y-13042584D01*
X7541658Y-13242584D02*
X7522610Y-13233060D01*
X7522610Y-13233060D02*
X7513086Y-13214012D01*
X7513086Y-13214012D02*
X7513086Y-13042584D01*
X7770229Y-13242584D02*
X7770229Y-13042584D01*
X7770229Y-13042584D02*
X7836896Y-13185441D01*
X7836896Y-13185441D02*
X7903562Y-13042584D01*
X7903562Y-13042584D02*
X7903562Y-13242584D01*
X8084515Y-13242584D02*
X8084515Y-13137822D01*
X8084515Y-13137822D02*
X8074991Y-13118774D01*
X8074991Y-13118774D02*
X8055943Y-13109250D01*
X8055943Y-13109250D02*
X8017848Y-13109250D01*
X8017848Y-13109250D02*
X7998801Y-13118774D01*
X8084515Y-13233060D02*
X8065467Y-13242584D01*
X8065467Y-13242584D02*
X8017848Y-13242584D01*
X8017848Y-13242584D02*
X7998801Y-13233060D01*
X7998801Y-13233060D02*
X7989277Y-13214012D01*
X7989277Y-13214012D02*
X7989277Y-13194965D01*
X7989277Y-13194965D02*
X7998801Y-13175917D01*
X7998801Y-13175917D02*
X8017848Y-13166393D01*
X8017848Y-13166393D02*
X8065467Y-13166393D01*
X8065467Y-13166393D02*
X8084515Y-13156869D01*
X8179753Y-13109250D02*
X8179753Y-13309250D01*
X8179753Y-13118774D02*
X8198801Y-13109250D01*
X8198801Y-13109250D02*
X8236896Y-13109250D01*
X8236896Y-13109250D02*
X8255943Y-13118774D01*
X8255943Y-13118774D02*
X8265467Y-13128298D01*
X8265467Y-13128298D02*
X8274991Y-13147346D01*
X8274991Y-13147346D02*
X8274991Y-13204488D01*
X8274991Y-13204488D02*
X8265467Y-13223536D01*
X8265467Y-13223536D02*
X8255943Y-13233060D01*
X8255943Y-13233060D02*
X8236896Y-13242584D01*
X8236896Y-13242584D02*
X8198801Y-13242584D01*
X8198801Y-13242584D02*
X8179753Y-13233060D01*
X8360705Y-13223536D02*
X8370229Y-13233060D01*
X8370229Y-13233060D02*
X8360705Y-13242584D01*
X8360705Y-13242584D02*
X8351182Y-13233060D01*
X8351182Y-13233060D02*
X8360705Y-13223536D01*
X8360705Y-13223536D02*
X8360705Y-13242584D01*
X8360705Y-13118774D02*
X8370229Y-13128298D01*
X8370229Y-13128298D02*
X8360705Y-13137822D01*
X8360705Y-13137822D02*
X8351182Y-13128298D01*
X8351182Y-13128298D02*
X8360705Y-13118774D01*
X8360705Y-13118774D02*
X8360705Y-13137822D01*
M02*
