M48
; DRILL file {KiCad 8.0.2-1} date 2025-02-24T08:21:48+0300
; FORMAT={-:-/ absolute / inch / decimal}
; #@! TF.CreationDate,2025-02-24T08:21:48+03:00
; #@! TF.GenerationSoftware,Kicad,Pcbnew,8.0.2-1
; #@! TF.FileFunction,Plated,1,2,PTH
FMAT,2
INCH
; #@! TA.AperFunction,Plated,PTH,ComponentDrill
T1C0.0276
; #@! TA.AperFunction,Plated,PTH,ComponentDrill
T2C0.0354
; #@! TA.AperFunction,Plated,PTH,ComponentDrill
T3C0.0360
; #@! TA.AperFunction,Plated,PTH,ComponentDrill
T4C0.0394
; #@! TA.AperFunction,Plated,PTH,ComponentDrill
T5C0.0551
; #@! TA.AperFunction,Plated,PTH,ComponentDrill
T6C0.0669
; #@! TA.AperFunction,Plated,PTH,ComponentDrill
T7C0.0906
%
G90
G05
T2
X3.92Y-3.1223
X3.92Y-3.39
X4.0184Y-3.1223
X4.0184Y-3.205
X4.0184Y-3.39
T3
X2.7282Y-3.1783
X2.7282Y-3.2783
X2.7282Y-3.3783
X2.7282Y-3.4783
X2.7282Y-3.5783
X2.7282Y-3.6783
X2.7282Y-3.7783
X2.7282Y-3.8783
X2.7282Y-3.9783
X2.7282Y-4.0783
X2.7282Y-4.1783
X2.7282Y-4.2783
X2.7282Y-4.3783
X2.7282Y-4.4783
X2.7282Y-4.5783
X3.7518Y-3.176
X3.7518Y-3.276
X3.7518Y-3.376
X3.7518Y-3.476
X3.7518Y-3.576
X3.7518Y-3.676
X3.7518Y-3.776
X3.7518Y-3.876
X3.7518Y-3.976
X3.7518Y-4.076
X3.7518Y-4.176
X3.7518Y-4.276
X3.7518Y-4.376
X3.7518Y-4.476
X3.7518Y-4.581
T4
X4.1002Y-4.23
X4.2002Y-4.23
T5
X3.9628Y-4.3993
X3.9628Y-4.73
X3.9628Y-4.5646
X4.14Y-4.5646
X4.14Y-4.3993
X4.14Y-4.73
T6
X3.0891Y-3.0759
X3.1973Y-3.8298
X3.1981Y-3.0755
X3.3095Y-3.0759
X3.3115Y-3.8298
X3.4217Y-3.0739
T7
X3.0843Y-3.8247
X3.43Y-3.82
T1
G00X4.107Y-2.9904
M15
G01X4.1661Y-2.9904
M16
G05
G00X4.107Y-3.5219
M15
G01X4.1661Y-3.5219
M16
G05
G00X4.168Y-3.2857
M15
G01X4.168Y-3.2266
M16
G05
M30
