%TF.GenerationSoftware,KiCad,Pcbnew,8.0.2-1*%
%TF.CreationDate,2025-02-24T08:21:49+03:00*%
%TF.ProjectId,PFC_CAN,5046435f-4341-44e2-9e6b-696361645f70,rev?*%
%TF.SameCoordinates,Original*%
%TF.FileFunction,Drillmap*%
%TF.FilePolarity,Positive*%
%FSLAX45Y45*%
G04 Gerber Fmt 4.5, Leading zero omitted, Abs format (unit mm)*
G04 Created by KiCad (PCBNEW 8.0.2-1) date 2025-02-24 08:21:49*
%MOMM*%
%LPD*%
G01*
G04 APERTURE LIST*
%ADD10C,0.050000*%
%ADD11C,0.200000*%
%ADD12C,0.100000*%
%ADD13C,0.140000*%
%ADD14C,0.170000*%
%ADD15C,0.230000*%
G04 APERTURE END LIST*
D10*
X6731000Y-7442200D02*
X11379200Y-7442200D01*
X11379200Y-12928600D01*
X6731000Y-12928600D01*
X6731000Y-7442200D01*
D11*
D12*
X10471800Y-7560600D02*
X10541800Y-7630600D01*
X10541800Y-7560600D02*
X10471800Y-7630600D01*
X10431800Y-7630600D02*
X10581800Y-7630600D01*
X10581800Y-7560600D02*
G75*
G02*
X10581800Y-7630600I0J-35000D01*
G01*
X10581800Y-7560600D02*
X10431800Y-7560600D01*
X10431800Y-7560600D02*
G75*
G03*
X10431800Y-7630600I0J-35000D01*
G01*
X10471800Y-8910600D02*
X10541800Y-8980600D01*
X10541800Y-8910600D02*
X10471800Y-8980600D01*
X10431800Y-8980600D02*
X10581800Y-8980600D01*
X10581800Y-8910600D02*
G75*
G02*
X10581800Y-8980600I0J-35000D01*
G01*
X10581800Y-8910600D02*
X10431800Y-8910600D01*
X10431800Y-8910600D02*
G75*
G03*
X10431800Y-8980600I0J-35000D01*
G01*
X10551800Y-8235600D02*
X10621800Y-8305600D01*
X10621800Y-8235600D02*
X10551800Y-8305600D01*
X10621800Y-8345600D02*
X10621800Y-8195600D01*
X10551800Y-8195600D02*
G75*
G02*
X10621800Y-8195600I35000J0D01*
G01*
X10551800Y-8195600D02*
X10551800Y-8345600D01*
X10551800Y-8345600D02*
G75*
G03*
X10621800Y-8345600I35000J0D01*
G01*
X10001800Y-7930600D02*
G75*
G02*
X9911800Y-7930600I-45000J0D01*
G01*
X9911800Y-7930600D02*
G75*
G02*
X10001800Y-7930600I45000J0D01*
G01*
X10001800Y-8610600D02*
G75*
G02*
X9911800Y-8610600I-45000J0D01*
G01*
X9911800Y-8610600D02*
G75*
G02*
X10001800Y-8610600I45000J0D01*
G01*
X10251800Y-7930600D02*
G75*
G02*
X10161800Y-7930600I-45000J0D01*
G01*
X10161800Y-7930600D02*
G75*
G02*
X10251800Y-7930600I45000J0D01*
G01*
X10251800Y-8140600D02*
G75*
G02*
X10161800Y-8140600I-45000J0D01*
G01*
X10161800Y-8140600D02*
G75*
G02*
X10251800Y-8140600I45000J0D01*
G01*
X10251800Y-8610600D02*
G75*
G02*
X10161800Y-8610600I-45000J0D01*
G01*
X10161800Y-8610600D02*
G75*
G02*
X10251800Y-8610600I45000J0D01*
G01*
X6929600Y-8027200D02*
X6929600Y-8118640D01*
X6883880Y-8072920D02*
X6975320Y-8072920D01*
X6929600Y-8281200D02*
X6929600Y-8372640D01*
X6883880Y-8326920D02*
X6975320Y-8326920D01*
X6929600Y-8535200D02*
X6929600Y-8626640D01*
X6883880Y-8580920D02*
X6975320Y-8580920D01*
X6929600Y-8789200D02*
X6929600Y-8880640D01*
X6883880Y-8834920D02*
X6975320Y-8834920D01*
X6929600Y-9043200D02*
X6929600Y-9134640D01*
X6883880Y-9088920D02*
X6975320Y-9088920D01*
X6929600Y-9297200D02*
X6929600Y-9388640D01*
X6883880Y-9342920D02*
X6975320Y-9342920D01*
X6929600Y-9551200D02*
X6929600Y-9642640D01*
X6883880Y-9596920D02*
X6975320Y-9596920D01*
X6929600Y-9805200D02*
X6929600Y-9896640D01*
X6883880Y-9850920D02*
X6975320Y-9850920D01*
X6929600Y-10059200D02*
X6929600Y-10150640D01*
X6883880Y-10104920D02*
X6975320Y-10104920D01*
X6929600Y-10313200D02*
X6929600Y-10404640D01*
X6883880Y-10358920D02*
X6975320Y-10358920D01*
X6929600Y-10567200D02*
X6929600Y-10658640D01*
X6883880Y-10612920D02*
X6975320Y-10612920D01*
X6929600Y-10821200D02*
X6929600Y-10912640D01*
X6883880Y-10866920D02*
X6975320Y-10866920D01*
X6929600Y-11075200D02*
X6929600Y-11166640D01*
X6883880Y-11120920D02*
X6975320Y-11120920D01*
X6929600Y-11329200D02*
X6929600Y-11420640D01*
X6883880Y-11374920D02*
X6975320Y-11374920D01*
X6929600Y-11583200D02*
X6929600Y-11674640D01*
X6883880Y-11628920D02*
X6975320Y-11628920D01*
X9529600Y-8021280D02*
X9529600Y-8112720D01*
X9483880Y-8067000D02*
X9575320Y-8067000D01*
X9529600Y-8275280D02*
X9529600Y-8366720D01*
X9483880Y-8321000D02*
X9575320Y-8321000D01*
X9529600Y-8529280D02*
X9529600Y-8620720D01*
X9483880Y-8575000D02*
X9575320Y-8575000D01*
X9529600Y-8783280D02*
X9529600Y-8874720D01*
X9483880Y-8829000D02*
X9575320Y-8829000D01*
X9529600Y-9037280D02*
X9529600Y-9128720D01*
X9483880Y-9083000D02*
X9575320Y-9083000D01*
X9529600Y-9291280D02*
X9529600Y-9382720D01*
X9483880Y-9337000D02*
X9575320Y-9337000D01*
X9529600Y-9545280D02*
X9529600Y-9636720D01*
X9483880Y-9591000D02*
X9575320Y-9591000D01*
X9529600Y-9799280D02*
X9529600Y-9890720D01*
X9483880Y-9845000D02*
X9575320Y-9845000D01*
X9529600Y-10053280D02*
X9529600Y-10144720D01*
X9483880Y-10099000D02*
X9575320Y-10099000D01*
X9529600Y-10307280D02*
X9529600Y-10398720D01*
X9483880Y-10353000D02*
X9575320Y-10353000D01*
X9529600Y-10561280D02*
X9529600Y-10652720D01*
X9483880Y-10607000D02*
X9575320Y-10607000D01*
X9529600Y-10815280D02*
X9529600Y-10906720D01*
X9483880Y-10861000D02*
X9575320Y-10861000D01*
X9529600Y-11069280D02*
X9529600Y-11160720D01*
X9483880Y-11115000D02*
X9575320Y-11115000D01*
X9529600Y-11323280D02*
X9529600Y-11414720D01*
X9483880Y-11369000D02*
X9575320Y-11369000D01*
X9529600Y-11589980D02*
X9529600Y-11681420D01*
X9483880Y-11635700D02*
X9575320Y-11635700D01*
X10449856Y-10779556D02*
X10449856Y-10708844D01*
X10379144Y-10708844D01*
X10379144Y-10779556D01*
X10449856Y-10779556D01*
X10703856Y-10779556D02*
X10703856Y-10708844D01*
X10633144Y-10708844D01*
X10633144Y-10779556D01*
X10703856Y-10779556D01*
D13*
X10065600Y-11244200D02*
X10135600Y-11174200D01*
X10065600Y-11104200D01*
X9995600Y-11174200D01*
X10065600Y-11244200D01*
X10065600Y-12084200D02*
X10135600Y-12014200D01*
X10065600Y-11944200D01*
X9995600Y-12014200D01*
X10065600Y-12084200D01*
X10065600Y-11664200D02*
X10135600Y-11594200D01*
X10065600Y-11524200D01*
X9995600Y-11594200D01*
X10065600Y-11664200D01*
X10515600Y-11664200D02*
X10585600Y-11594200D01*
X10515600Y-11524200D01*
X10445600Y-11594200D01*
X10515600Y-11664200D01*
X10515600Y-11244200D02*
X10585600Y-11174200D01*
X10515600Y-11104200D01*
X10445600Y-11174200D01*
X10515600Y-11244200D01*
X10515600Y-12084200D02*
X10585600Y-12014200D01*
X10515600Y-11944200D01*
X10445600Y-12014200D01*
X10515600Y-12084200D01*
D14*
X7761200Y-7727800D02*
X7931200Y-7897800D01*
X7931200Y-7727800D02*
X7761200Y-7897800D01*
X7931200Y-7812800D02*
G75*
G02*
X7761200Y-7812800I-85000J0D01*
G01*
X7761200Y-7812800D02*
G75*
G02*
X7931200Y-7812800I85000J0D01*
G01*
X8036200Y-9642800D02*
X8206200Y-9812800D01*
X8206200Y-9642800D02*
X8036200Y-9812800D01*
X8206200Y-9727800D02*
G75*
G02*
X8036200Y-9727800I-85000J0D01*
G01*
X8036200Y-9727800D02*
G75*
G02*
X8206200Y-9727800I85000J0D01*
G01*
X8038200Y-7726800D02*
X8208200Y-7896800D01*
X8208200Y-7726800D02*
X8038200Y-7896800D01*
X8208200Y-7811800D02*
G75*
G02*
X8038200Y-7811800I-85000J0D01*
G01*
X8038200Y-7811800D02*
G75*
G02*
X8208200Y-7811800I85000J0D01*
G01*
X8321200Y-7727800D02*
X8491200Y-7897800D01*
X8491200Y-7727800D02*
X8321200Y-7897800D01*
X8491200Y-7812800D02*
G75*
G02*
X8321200Y-7812800I-85000J0D01*
G01*
X8321200Y-7812800D02*
G75*
G02*
X8491200Y-7812800I85000J0D01*
G01*
X8326200Y-9642800D02*
X8496200Y-9812800D01*
X8496200Y-9642800D02*
X8326200Y-9812800D01*
X8496200Y-9727800D02*
G75*
G02*
X8326200Y-9727800I-85000J0D01*
G01*
X8326200Y-9727800D02*
G75*
G02*
X8496200Y-9727800I85000J0D01*
G01*
X8606200Y-7722800D02*
X8776200Y-7892800D01*
X8776200Y-7722800D02*
X8606200Y-7892800D01*
X8776200Y-7807800D02*
G75*
G02*
X8606200Y-7807800I-85000J0D01*
G01*
X8606200Y-7807800D02*
G75*
G02*
X8776200Y-7807800I85000J0D01*
G01*
D15*
X7719200Y-9599800D02*
X7949200Y-9829800D01*
X7949200Y-9599800D02*
X7719200Y-9829800D01*
X7834200Y-9599800D02*
X7834200Y-9829800D01*
X7719200Y-9714800D02*
X7949200Y-9714800D01*
X8597200Y-9587800D02*
X8827200Y-9817800D01*
X8827200Y-9587800D02*
X8597200Y-9817800D01*
X8712200Y-9587800D02*
X8712200Y-9817800D01*
X8597200Y-9702800D02*
X8827200Y-9702800D01*
D11*
X6989277Y-13242584D02*
X6989277Y-13042584D01*
X6989277Y-13042584D02*
X7036896Y-13042584D01*
X7036896Y-13042584D02*
X7065467Y-13052108D01*
X7065467Y-13052108D02*
X7084515Y-13071155D01*
X7084515Y-13071155D02*
X7094039Y-13090203D01*
X7094039Y-13090203D02*
X7103562Y-13128298D01*
X7103562Y-13128298D02*
X7103562Y-13156869D01*
X7103562Y-13156869D02*
X7094039Y-13194965D01*
X7094039Y-13194965D02*
X7084515Y-13214012D01*
X7084515Y-13214012D02*
X7065467Y-13233060D01*
X7065467Y-13233060D02*
X7036896Y-13242584D01*
X7036896Y-13242584D02*
X6989277Y-13242584D01*
X7189277Y-13242584D02*
X7189277Y-13109250D01*
X7189277Y-13147346D02*
X7198801Y-13128298D01*
X7198801Y-13128298D02*
X7208324Y-13118774D01*
X7208324Y-13118774D02*
X7227372Y-13109250D01*
X7227372Y-13109250D02*
X7246420Y-13109250D01*
X7313086Y-13242584D02*
X7313086Y-13109250D01*
X7313086Y-13042584D02*
X7303562Y-13052108D01*
X7303562Y-13052108D02*
X7313086Y-13061631D01*
X7313086Y-13061631D02*
X7322610Y-13052108D01*
X7322610Y-13052108D02*
X7313086Y-13042584D01*
X7313086Y-13042584D02*
X7313086Y-13061631D01*
X7436896Y-13242584D02*
X7417848Y-13233060D01*
X7417848Y-13233060D02*
X7408324Y-13214012D01*
X7408324Y-13214012D02*
X7408324Y-13042584D01*
X7541658Y-13242584D02*
X7522610Y-13233060D01*
X7522610Y-13233060D02*
X7513086Y-13214012D01*
X7513086Y-13214012D02*
X7513086Y-13042584D01*
X7770229Y-13242584D02*
X7770229Y-13042584D01*
X7770229Y-13042584D02*
X7836896Y-13185441D01*
X7836896Y-13185441D02*
X7903562Y-13042584D01*
X7903562Y-13042584D02*
X7903562Y-13242584D01*
X8084515Y-13242584D02*
X8084515Y-13137822D01*
X8084515Y-13137822D02*
X8074991Y-13118774D01*
X8074991Y-13118774D02*
X8055943Y-13109250D01*
X8055943Y-13109250D02*
X8017848Y-13109250D01*
X8017848Y-13109250D02*
X7998801Y-13118774D01*
X8084515Y-13233060D02*
X8065467Y-13242584D01*
X8065467Y-13242584D02*
X8017848Y-13242584D01*
X8017848Y-13242584D02*
X7998801Y-13233060D01*
X7998801Y-13233060D02*
X7989277Y-13214012D01*
X7989277Y-13214012D02*
X7989277Y-13194965D01*
X7989277Y-13194965D02*
X7998801Y-13175917D01*
X7998801Y-13175917D02*
X8017848Y-13166393D01*
X8017848Y-13166393D02*
X8065467Y-13166393D01*
X8065467Y-13166393D02*
X8084515Y-13156869D01*
X8179753Y-13109250D02*
X8179753Y-13309250D01*
X8179753Y-13118774D02*
X8198801Y-13109250D01*
X8198801Y-13109250D02*
X8236896Y-13109250D01*
X8236896Y-13109250D02*
X8255943Y-13118774D01*
X8255943Y-13118774D02*
X8265467Y-13128298D01*
X8265467Y-13128298D02*
X8274991Y-13147346D01*
X8274991Y-13147346D02*
X8274991Y-13204488D01*
X8274991Y-13204488D02*
X8265467Y-13223536D01*
X8265467Y-13223536D02*
X8255943Y-13233060D01*
X8255943Y-13233060D02*
X8236896Y-13242584D01*
X8236896Y-13242584D02*
X8198801Y-13242584D01*
X8198801Y-13242584D02*
X8179753Y-13233060D01*
X8360705Y-13223536D02*
X8370229Y-13233060D01*
X8370229Y-13233060D02*
X8360705Y-13242584D01*
X8360705Y-13242584D02*
X8351182Y-13233060D01*
X8351182Y-13233060D02*
X8360705Y-13223536D01*
X8360705Y-13223536D02*
X8360705Y-13242584D01*
X8360705Y-13118774D02*
X8370229Y-13128298D01*
X8370229Y-13128298D02*
X8360705Y-13137822D01*
X8360705Y-13137822D02*
X8351182Y-13128298D01*
X8351182Y-13128298D02*
X8360705Y-13118774D01*
X8360705Y-13118774D02*
X8360705Y-13137822D01*
D12*
X6658500Y-13536100D02*
X6728500Y-13606100D01*
X6728500Y-13536100D02*
X6658500Y-13606100D01*
D11*
X7027372Y-13462584D02*
X7046420Y-13462584D01*
X7046420Y-13462584D02*
X7065467Y-13472108D01*
X7065467Y-13472108D02*
X7074991Y-13481631D01*
X7074991Y-13481631D02*
X7084515Y-13500679D01*
X7084515Y-13500679D02*
X7094039Y-13538774D01*
X7094039Y-13538774D02*
X7094039Y-13586393D01*
X7094039Y-13586393D02*
X7084515Y-13624488D01*
X7084515Y-13624488D02*
X7074991Y-13643536D01*
X7074991Y-13643536D02*
X7065467Y-13653060D01*
X7065467Y-13653060D02*
X7046420Y-13662584D01*
X7046420Y-13662584D02*
X7027372Y-13662584D01*
X7027372Y-13662584D02*
X7008324Y-13653060D01*
X7008324Y-13653060D02*
X6998801Y-13643536D01*
X6998801Y-13643536D02*
X6989277Y-13624488D01*
X6989277Y-13624488D02*
X6979753Y-13586393D01*
X6979753Y-13586393D02*
X6979753Y-13538774D01*
X6979753Y-13538774D02*
X6989277Y-13500679D01*
X6989277Y-13500679D02*
X6998801Y-13481631D01*
X6998801Y-13481631D02*
X7008324Y-13472108D01*
X7008324Y-13472108D02*
X7027372Y-13462584D01*
X7179753Y-13643536D02*
X7189277Y-13653060D01*
X7189277Y-13653060D02*
X7179753Y-13662584D01*
X7179753Y-13662584D02*
X7170229Y-13653060D01*
X7170229Y-13653060D02*
X7179753Y-13643536D01*
X7179753Y-13643536D02*
X7179753Y-13662584D01*
X7255943Y-13462584D02*
X7389277Y-13462584D01*
X7389277Y-13462584D02*
X7303562Y-13662584D01*
X7503562Y-13462584D02*
X7522610Y-13462584D01*
X7522610Y-13462584D02*
X7541658Y-13472108D01*
X7541658Y-13472108D02*
X7551182Y-13481631D01*
X7551182Y-13481631D02*
X7560705Y-13500679D01*
X7560705Y-13500679D02*
X7570229Y-13538774D01*
X7570229Y-13538774D02*
X7570229Y-13586393D01*
X7570229Y-13586393D02*
X7560705Y-13624488D01*
X7560705Y-13624488D02*
X7551182Y-13643536D01*
X7551182Y-13643536D02*
X7541658Y-13653060D01*
X7541658Y-13653060D02*
X7522610Y-13662584D01*
X7522610Y-13662584D02*
X7503562Y-13662584D01*
X7503562Y-13662584D02*
X7484515Y-13653060D01*
X7484515Y-13653060D02*
X7474991Y-13643536D01*
X7474991Y-13643536D02*
X7465467Y-13624488D01*
X7465467Y-13624488D02*
X7455943Y-13586393D01*
X7455943Y-13586393D02*
X7455943Y-13538774D01*
X7455943Y-13538774D02*
X7465467Y-13500679D01*
X7465467Y-13500679D02*
X7474991Y-13481631D01*
X7474991Y-13481631D02*
X7484515Y-13472108D01*
X7484515Y-13472108D02*
X7503562Y-13462584D01*
X7694039Y-13462584D02*
X7713086Y-13462584D01*
X7713086Y-13462584D02*
X7732134Y-13472108D01*
X7732134Y-13472108D02*
X7741658Y-13481631D01*
X7741658Y-13481631D02*
X7751182Y-13500679D01*
X7751182Y-13500679D02*
X7760705Y-13538774D01*
X7760705Y-13538774D02*
X7760705Y-13586393D01*
X7760705Y-13586393D02*
X7751182Y-13624488D01*
X7751182Y-13624488D02*
X7741658Y-13643536D01*
X7741658Y-13643536D02*
X7732134Y-13653060D01*
X7732134Y-13653060D02*
X7713086Y-13662584D01*
X7713086Y-13662584D02*
X7694039Y-13662584D01*
X7694039Y-13662584D02*
X7674991Y-13653060D01*
X7674991Y-13653060D02*
X7665467Y-13643536D01*
X7665467Y-13643536D02*
X7655943Y-13624488D01*
X7655943Y-13624488D02*
X7646420Y-13586393D01*
X7646420Y-13586393D02*
X7646420Y-13538774D01*
X7646420Y-13538774D02*
X7655943Y-13500679D01*
X7655943Y-13500679D02*
X7665467Y-13481631D01*
X7665467Y-13481631D02*
X7674991Y-13472108D01*
X7674991Y-13472108D02*
X7694039Y-13462584D01*
X7846420Y-13662584D02*
X7846420Y-13529250D01*
X7846420Y-13548298D02*
X7855943Y-13538774D01*
X7855943Y-13538774D02*
X7874991Y-13529250D01*
X7874991Y-13529250D02*
X7903563Y-13529250D01*
X7903563Y-13529250D02*
X7922610Y-13538774D01*
X7922610Y-13538774D02*
X7932134Y-13557822D01*
X7932134Y-13557822D02*
X7932134Y-13662584D01*
X7932134Y-13557822D02*
X7941658Y-13538774D01*
X7941658Y-13538774D02*
X7960705Y-13529250D01*
X7960705Y-13529250D02*
X7989277Y-13529250D01*
X7989277Y-13529250D02*
X8008324Y-13538774D01*
X8008324Y-13538774D02*
X8017848Y-13557822D01*
X8017848Y-13557822D02*
X8017848Y-13662584D01*
X8113086Y-13662584D02*
X8113086Y-13529250D01*
X8113086Y-13548298D02*
X8122610Y-13538774D01*
X8122610Y-13538774D02*
X8141658Y-13529250D01*
X8141658Y-13529250D02*
X8170229Y-13529250D01*
X8170229Y-13529250D02*
X8189277Y-13538774D01*
X8189277Y-13538774D02*
X8198801Y-13557822D01*
X8198801Y-13557822D02*
X8198801Y-13662584D01*
X8198801Y-13557822D02*
X8208324Y-13538774D01*
X8208324Y-13538774D02*
X8227372Y-13529250D01*
X8227372Y-13529250D02*
X8255943Y-13529250D01*
X8255943Y-13529250D02*
X8274991Y-13538774D01*
X8274991Y-13538774D02*
X8284515Y-13557822D01*
X8284515Y-13557822D02*
X8284515Y-13662584D01*
X8674991Y-13453060D02*
X8503563Y-13710203D01*
X8932134Y-13462584D02*
X8951182Y-13462584D01*
X8951182Y-13462584D02*
X8970229Y-13472108D01*
X8970229Y-13472108D02*
X8979753Y-13481631D01*
X8979753Y-13481631D02*
X8989277Y-13500679D01*
X8989277Y-13500679D02*
X8998801Y-13538774D01*
X8998801Y-13538774D02*
X8998801Y-13586393D01*
X8998801Y-13586393D02*
X8989277Y-13624488D01*
X8989277Y-13624488D02*
X8979753Y-13643536D01*
X8979753Y-13643536D02*
X8970229Y-13653060D01*
X8970229Y-13653060D02*
X8951182Y-13662584D01*
X8951182Y-13662584D02*
X8932134Y-13662584D01*
X8932134Y-13662584D02*
X8913087Y-13653060D01*
X8913087Y-13653060D02*
X8903563Y-13643536D01*
X8903563Y-13643536D02*
X8894039Y-13624488D01*
X8894039Y-13624488D02*
X8884515Y-13586393D01*
X8884515Y-13586393D02*
X8884515Y-13538774D01*
X8884515Y-13538774D02*
X8894039Y-13500679D01*
X8894039Y-13500679D02*
X8903563Y-13481631D01*
X8903563Y-13481631D02*
X8913087Y-13472108D01*
X8913087Y-13472108D02*
X8932134Y-13462584D01*
X9084515Y-13643536D02*
X9094039Y-13653060D01*
X9094039Y-13653060D02*
X9084515Y-13662584D01*
X9084515Y-13662584D02*
X9074991Y-13653060D01*
X9074991Y-13653060D02*
X9084515Y-13643536D01*
X9084515Y-13643536D02*
X9084515Y-13662584D01*
X9217848Y-13462584D02*
X9236896Y-13462584D01*
X9236896Y-13462584D02*
X9255944Y-13472108D01*
X9255944Y-13472108D02*
X9265468Y-13481631D01*
X9265468Y-13481631D02*
X9274991Y-13500679D01*
X9274991Y-13500679D02*
X9284515Y-13538774D01*
X9284515Y-13538774D02*
X9284515Y-13586393D01*
X9284515Y-13586393D02*
X9274991Y-13624488D01*
X9274991Y-13624488D02*
X9265468Y-13643536D01*
X9265468Y-13643536D02*
X9255944Y-13653060D01*
X9255944Y-13653060D02*
X9236896Y-13662584D01*
X9236896Y-13662584D02*
X9217848Y-13662584D01*
X9217848Y-13662584D02*
X9198801Y-13653060D01*
X9198801Y-13653060D02*
X9189277Y-13643536D01*
X9189277Y-13643536D02*
X9179753Y-13624488D01*
X9179753Y-13624488D02*
X9170229Y-13586393D01*
X9170229Y-13586393D02*
X9170229Y-13538774D01*
X9170229Y-13538774D02*
X9179753Y-13500679D01*
X9179753Y-13500679D02*
X9189277Y-13481631D01*
X9189277Y-13481631D02*
X9198801Y-13472108D01*
X9198801Y-13472108D02*
X9217848Y-13462584D01*
X9360706Y-13481631D02*
X9370229Y-13472108D01*
X9370229Y-13472108D02*
X9389277Y-13462584D01*
X9389277Y-13462584D02*
X9436896Y-13462584D01*
X9436896Y-13462584D02*
X9455944Y-13472108D01*
X9455944Y-13472108D02*
X9465468Y-13481631D01*
X9465468Y-13481631D02*
X9474991Y-13500679D01*
X9474991Y-13500679D02*
X9474991Y-13519727D01*
X9474991Y-13519727D02*
X9465468Y-13548298D01*
X9465468Y-13548298D02*
X9351182Y-13662584D01*
X9351182Y-13662584D02*
X9474991Y-13662584D01*
X9541658Y-13462584D02*
X9674991Y-13462584D01*
X9674991Y-13462584D02*
X9589277Y-13662584D01*
X9836896Y-13462584D02*
X9798801Y-13462584D01*
X9798801Y-13462584D02*
X9779753Y-13472108D01*
X9779753Y-13472108D02*
X9770229Y-13481631D01*
X9770229Y-13481631D02*
X9751182Y-13510203D01*
X9751182Y-13510203D02*
X9741658Y-13548298D01*
X9741658Y-13548298D02*
X9741658Y-13624488D01*
X9741658Y-13624488D02*
X9751182Y-13643536D01*
X9751182Y-13643536D02*
X9760706Y-13653060D01*
X9760706Y-13653060D02*
X9779753Y-13662584D01*
X9779753Y-13662584D02*
X9817849Y-13662584D01*
X9817849Y-13662584D02*
X9836896Y-13653060D01*
X9836896Y-13653060D02*
X9846420Y-13643536D01*
X9846420Y-13643536D02*
X9855944Y-13624488D01*
X9855944Y-13624488D02*
X9855944Y-13576869D01*
X9855944Y-13576869D02*
X9846420Y-13557822D01*
X9846420Y-13557822D02*
X9836896Y-13548298D01*
X9836896Y-13548298D02*
X9817849Y-13538774D01*
X9817849Y-13538774D02*
X9779753Y-13538774D01*
X9779753Y-13538774D02*
X9760706Y-13548298D01*
X9760706Y-13548298D02*
X9751182Y-13557822D01*
X9751182Y-13557822D02*
X9741658Y-13576869D01*
X9932134Y-13462584D02*
X9932134Y-13500679D01*
X10008325Y-13462584D02*
X10008325Y-13500679D01*
X10303563Y-13738774D02*
X10294039Y-13729250D01*
X10294039Y-13729250D02*
X10274991Y-13700679D01*
X10274991Y-13700679D02*
X10265468Y-13681631D01*
X10265468Y-13681631D02*
X10255944Y-13653060D01*
X10255944Y-13653060D02*
X10246420Y-13605441D01*
X10246420Y-13605441D02*
X10246420Y-13567346D01*
X10246420Y-13567346D02*
X10255944Y-13519727D01*
X10255944Y-13519727D02*
X10265468Y-13491155D01*
X10265468Y-13491155D02*
X10274991Y-13472108D01*
X10274991Y-13472108D02*
X10294039Y-13443536D01*
X10294039Y-13443536D02*
X10303563Y-13434012D01*
X10417849Y-13462584D02*
X10436896Y-13462584D01*
X10436896Y-13462584D02*
X10455944Y-13472108D01*
X10455944Y-13472108D02*
X10465468Y-13481631D01*
X10465468Y-13481631D02*
X10474991Y-13500679D01*
X10474991Y-13500679D02*
X10484515Y-13538774D01*
X10484515Y-13538774D02*
X10484515Y-13586393D01*
X10484515Y-13586393D02*
X10474991Y-13624488D01*
X10474991Y-13624488D02*
X10465468Y-13643536D01*
X10465468Y-13643536D02*
X10455944Y-13653060D01*
X10455944Y-13653060D02*
X10436896Y-13662584D01*
X10436896Y-13662584D02*
X10417849Y-13662584D01*
X10417849Y-13662584D02*
X10398801Y-13653060D01*
X10398801Y-13653060D02*
X10389277Y-13643536D01*
X10389277Y-13643536D02*
X10379753Y-13624488D01*
X10379753Y-13624488D02*
X10370230Y-13586393D01*
X10370230Y-13586393D02*
X10370230Y-13538774D01*
X10370230Y-13538774D02*
X10379753Y-13500679D01*
X10379753Y-13500679D02*
X10389277Y-13481631D01*
X10389277Y-13481631D02*
X10398801Y-13472108D01*
X10398801Y-13472108D02*
X10417849Y-13462584D01*
X10722611Y-13662584D02*
X10722611Y-13462584D01*
X10808325Y-13662584D02*
X10808325Y-13557822D01*
X10808325Y-13557822D02*
X10798801Y-13538774D01*
X10798801Y-13538774D02*
X10779753Y-13529250D01*
X10779753Y-13529250D02*
X10751182Y-13529250D01*
X10751182Y-13529250D02*
X10732134Y-13538774D01*
X10732134Y-13538774D02*
X10722611Y-13548298D01*
X10932134Y-13662584D02*
X10913087Y-13653060D01*
X10913087Y-13653060D02*
X10903563Y-13643536D01*
X10903563Y-13643536D02*
X10894039Y-13624488D01*
X10894039Y-13624488D02*
X10894039Y-13567346D01*
X10894039Y-13567346D02*
X10903563Y-13548298D01*
X10903563Y-13548298D02*
X10913087Y-13538774D01*
X10913087Y-13538774D02*
X10932134Y-13529250D01*
X10932134Y-13529250D02*
X10960706Y-13529250D01*
X10960706Y-13529250D02*
X10979753Y-13538774D01*
X10979753Y-13538774D02*
X10989277Y-13548298D01*
X10989277Y-13548298D02*
X10998801Y-13567346D01*
X10998801Y-13567346D02*
X10998801Y-13624488D01*
X10998801Y-13624488D02*
X10989277Y-13643536D01*
X10989277Y-13643536D02*
X10979753Y-13653060D01*
X10979753Y-13653060D02*
X10960706Y-13662584D01*
X10960706Y-13662584D02*
X10932134Y-13662584D01*
X11113087Y-13662584D02*
X11094039Y-13653060D01*
X11094039Y-13653060D02*
X11084515Y-13634012D01*
X11084515Y-13634012D02*
X11084515Y-13462584D01*
X11265468Y-13653060D02*
X11246420Y-13662584D01*
X11246420Y-13662584D02*
X11208325Y-13662584D01*
X11208325Y-13662584D02*
X11189277Y-13653060D01*
X11189277Y-13653060D02*
X11179753Y-13634012D01*
X11179753Y-13634012D02*
X11179753Y-13557822D01*
X11179753Y-13557822D02*
X11189277Y-13538774D01*
X11189277Y-13538774D02*
X11208325Y-13529250D01*
X11208325Y-13529250D02*
X11246420Y-13529250D01*
X11246420Y-13529250D02*
X11265468Y-13538774D01*
X11265468Y-13538774D02*
X11274991Y-13557822D01*
X11274991Y-13557822D02*
X11274991Y-13576869D01*
X11274991Y-13576869D02*
X11179753Y-13595917D01*
X11351182Y-13653060D02*
X11370230Y-13662584D01*
X11370230Y-13662584D02*
X11408325Y-13662584D01*
X11408325Y-13662584D02*
X11427372Y-13653060D01*
X11427372Y-13653060D02*
X11436896Y-13634012D01*
X11436896Y-13634012D02*
X11436896Y-13624488D01*
X11436896Y-13624488D02*
X11427372Y-13605441D01*
X11427372Y-13605441D02*
X11408325Y-13595917D01*
X11408325Y-13595917D02*
X11379753Y-13595917D01*
X11379753Y-13595917D02*
X11360706Y-13586393D01*
X11360706Y-13586393D02*
X11351182Y-13567346D01*
X11351182Y-13567346D02*
X11351182Y-13557822D01*
X11351182Y-13557822D02*
X11360706Y-13538774D01*
X11360706Y-13538774D02*
X11379753Y-13529250D01*
X11379753Y-13529250D02*
X11408325Y-13529250D01*
X11408325Y-13529250D02*
X11427372Y-13538774D01*
X11674992Y-13586393D02*
X11827373Y-13586393D01*
X11751182Y-13662584D02*
X11751182Y-13510203D01*
X12055944Y-13462584D02*
X12179753Y-13462584D01*
X12179753Y-13462584D02*
X12113087Y-13538774D01*
X12113087Y-13538774D02*
X12141658Y-13538774D01*
X12141658Y-13538774D02*
X12160706Y-13548298D01*
X12160706Y-13548298D02*
X12170230Y-13557822D01*
X12170230Y-13557822D02*
X12179753Y-13576869D01*
X12179753Y-13576869D02*
X12179753Y-13624488D01*
X12179753Y-13624488D02*
X12170230Y-13643536D01*
X12170230Y-13643536D02*
X12160706Y-13653060D01*
X12160706Y-13653060D02*
X12141658Y-13662584D01*
X12141658Y-13662584D02*
X12084515Y-13662584D01*
X12084515Y-13662584D02*
X12065468Y-13653060D01*
X12065468Y-13653060D02*
X12055944Y-13643536D01*
X12408325Y-13653060D02*
X12427373Y-13662584D01*
X12427373Y-13662584D02*
X12465468Y-13662584D01*
X12465468Y-13662584D02*
X12484515Y-13653060D01*
X12484515Y-13653060D02*
X12494039Y-13634012D01*
X12494039Y-13634012D02*
X12494039Y-13624488D01*
X12494039Y-13624488D02*
X12484515Y-13605441D01*
X12484515Y-13605441D02*
X12465468Y-13595917D01*
X12465468Y-13595917D02*
X12436896Y-13595917D01*
X12436896Y-13595917D02*
X12417849Y-13586393D01*
X12417849Y-13586393D02*
X12408325Y-13567346D01*
X12408325Y-13567346D02*
X12408325Y-13557822D01*
X12408325Y-13557822D02*
X12417849Y-13538774D01*
X12417849Y-13538774D02*
X12436896Y-13529250D01*
X12436896Y-13529250D02*
X12465468Y-13529250D01*
X12465468Y-13529250D02*
X12484515Y-13538774D01*
X12608325Y-13662584D02*
X12589277Y-13653060D01*
X12589277Y-13653060D02*
X12579754Y-13634012D01*
X12579754Y-13634012D02*
X12579754Y-13462584D01*
X12713087Y-13662584D02*
X12694039Y-13653060D01*
X12694039Y-13653060D02*
X12684515Y-13643536D01*
X12684515Y-13643536D02*
X12674992Y-13624488D01*
X12674992Y-13624488D02*
X12674992Y-13567346D01*
X12674992Y-13567346D02*
X12684515Y-13548298D01*
X12684515Y-13548298D02*
X12694039Y-13538774D01*
X12694039Y-13538774D02*
X12713087Y-13529250D01*
X12713087Y-13529250D02*
X12741658Y-13529250D01*
X12741658Y-13529250D02*
X12760706Y-13538774D01*
X12760706Y-13538774D02*
X12770230Y-13548298D01*
X12770230Y-13548298D02*
X12779754Y-13567346D01*
X12779754Y-13567346D02*
X12779754Y-13624488D01*
X12779754Y-13624488D02*
X12770230Y-13643536D01*
X12770230Y-13643536D02*
X12760706Y-13653060D01*
X12760706Y-13653060D02*
X12741658Y-13662584D01*
X12741658Y-13662584D02*
X12713087Y-13662584D01*
X12836896Y-13529250D02*
X12913087Y-13529250D01*
X12865468Y-13462584D02*
X12865468Y-13634012D01*
X12865468Y-13634012D02*
X12874992Y-13653060D01*
X12874992Y-13653060D02*
X12894039Y-13662584D01*
X12894039Y-13662584D02*
X12913087Y-13662584D01*
X12970230Y-13653060D02*
X12989277Y-13662584D01*
X12989277Y-13662584D02*
X13027373Y-13662584D01*
X13027373Y-13662584D02*
X13046420Y-13653060D01*
X13046420Y-13653060D02*
X13055944Y-13634012D01*
X13055944Y-13634012D02*
X13055944Y-13624488D01*
X13055944Y-13624488D02*
X13046420Y-13605441D01*
X13046420Y-13605441D02*
X13027373Y-13595917D01*
X13027373Y-13595917D02*
X12998801Y-13595917D01*
X12998801Y-13595917D02*
X12979754Y-13586393D01*
X12979754Y-13586393D02*
X12970230Y-13567346D01*
X12970230Y-13567346D02*
X12970230Y-13557822D01*
X12970230Y-13557822D02*
X12979754Y-13538774D01*
X12979754Y-13538774D02*
X12998801Y-13529250D01*
X12998801Y-13529250D02*
X13027373Y-13529250D01*
X13027373Y-13529250D02*
X13046420Y-13538774D01*
X13122611Y-13738774D02*
X13132135Y-13729250D01*
X13132135Y-13729250D02*
X13151182Y-13700679D01*
X13151182Y-13700679D02*
X13160706Y-13681631D01*
X13160706Y-13681631D02*
X13170230Y-13653060D01*
X13170230Y-13653060D02*
X13179754Y-13605441D01*
X13179754Y-13605441D02*
X13179754Y-13567346D01*
X13179754Y-13567346D02*
X13170230Y-13519727D01*
X13170230Y-13519727D02*
X13160706Y-13491155D01*
X13160706Y-13491155D02*
X13151182Y-13472108D01*
X13151182Y-13472108D02*
X13132135Y-13443536D01*
X13132135Y-13443536D02*
X13122611Y-13434012D01*
D12*
X6728500Y-13835100D02*
G75*
G02*
X6638500Y-13835100I-45000J0D01*
G01*
X6638500Y-13835100D02*
G75*
G02*
X6728500Y-13835100I45000J0D01*
G01*
D11*
X7027372Y-13726584D02*
X7046420Y-13726584D01*
X7046420Y-13726584D02*
X7065467Y-13736108D01*
X7065467Y-13736108D02*
X7074991Y-13745631D01*
X7074991Y-13745631D02*
X7084515Y-13764679D01*
X7084515Y-13764679D02*
X7094039Y-13802774D01*
X7094039Y-13802774D02*
X7094039Y-13850393D01*
X7094039Y-13850393D02*
X7084515Y-13888488D01*
X7084515Y-13888488D02*
X7074991Y-13907536D01*
X7074991Y-13907536D02*
X7065467Y-13917060D01*
X7065467Y-13917060D02*
X7046420Y-13926584D01*
X7046420Y-13926584D02*
X7027372Y-13926584D01*
X7027372Y-13926584D02*
X7008324Y-13917060D01*
X7008324Y-13917060D02*
X6998801Y-13907536D01*
X6998801Y-13907536D02*
X6989277Y-13888488D01*
X6989277Y-13888488D02*
X6979753Y-13850393D01*
X6979753Y-13850393D02*
X6979753Y-13802774D01*
X6979753Y-13802774D02*
X6989277Y-13764679D01*
X6989277Y-13764679D02*
X6998801Y-13745631D01*
X6998801Y-13745631D02*
X7008324Y-13736108D01*
X7008324Y-13736108D02*
X7027372Y-13726584D01*
X7179753Y-13907536D02*
X7189277Y-13917060D01*
X7189277Y-13917060D02*
X7179753Y-13926584D01*
X7179753Y-13926584D02*
X7170229Y-13917060D01*
X7170229Y-13917060D02*
X7179753Y-13907536D01*
X7179753Y-13907536D02*
X7179753Y-13926584D01*
X7284515Y-13926584D02*
X7322610Y-13926584D01*
X7322610Y-13926584D02*
X7341658Y-13917060D01*
X7341658Y-13917060D02*
X7351182Y-13907536D01*
X7351182Y-13907536D02*
X7370229Y-13878965D01*
X7370229Y-13878965D02*
X7379753Y-13840869D01*
X7379753Y-13840869D02*
X7379753Y-13764679D01*
X7379753Y-13764679D02*
X7370229Y-13745631D01*
X7370229Y-13745631D02*
X7360705Y-13736108D01*
X7360705Y-13736108D02*
X7341658Y-13726584D01*
X7341658Y-13726584D02*
X7303562Y-13726584D01*
X7303562Y-13726584D02*
X7284515Y-13736108D01*
X7284515Y-13736108D02*
X7274991Y-13745631D01*
X7274991Y-13745631D02*
X7265467Y-13764679D01*
X7265467Y-13764679D02*
X7265467Y-13812298D01*
X7265467Y-13812298D02*
X7274991Y-13831346D01*
X7274991Y-13831346D02*
X7284515Y-13840869D01*
X7284515Y-13840869D02*
X7303562Y-13850393D01*
X7303562Y-13850393D02*
X7341658Y-13850393D01*
X7341658Y-13850393D02*
X7360705Y-13840869D01*
X7360705Y-13840869D02*
X7370229Y-13831346D01*
X7370229Y-13831346D02*
X7379753Y-13812298D01*
X7503562Y-13726584D02*
X7522610Y-13726584D01*
X7522610Y-13726584D02*
X7541658Y-13736108D01*
X7541658Y-13736108D02*
X7551182Y-13745631D01*
X7551182Y-13745631D02*
X7560705Y-13764679D01*
X7560705Y-13764679D02*
X7570229Y-13802774D01*
X7570229Y-13802774D02*
X7570229Y-13850393D01*
X7570229Y-13850393D02*
X7560705Y-13888488D01*
X7560705Y-13888488D02*
X7551182Y-13907536D01*
X7551182Y-13907536D02*
X7541658Y-13917060D01*
X7541658Y-13917060D02*
X7522610Y-13926584D01*
X7522610Y-13926584D02*
X7503562Y-13926584D01*
X7503562Y-13926584D02*
X7484515Y-13917060D01*
X7484515Y-13917060D02*
X7474991Y-13907536D01*
X7474991Y-13907536D02*
X7465467Y-13888488D01*
X7465467Y-13888488D02*
X7455943Y-13850393D01*
X7455943Y-13850393D02*
X7455943Y-13802774D01*
X7455943Y-13802774D02*
X7465467Y-13764679D01*
X7465467Y-13764679D02*
X7474991Y-13745631D01*
X7474991Y-13745631D02*
X7484515Y-13736108D01*
X7484515Y-13736108D02*
X7503562Y-13726584D01*
X7694039Y-13726584D02*
X7713086Y-13726584D01*
X7713086Y-13726584D02*
X7732134Y-13736108D01*
X7732134Y-13736108D02*
X7741658Y-13745631D01*
X7741658Y-13745631D02*
X7751182Y-13764679D01*
X7751182Y-13764679D02*
X7760705Y-13802774D01*
X7760705Y-13802774D02*
X7760705Y-13850393D01*
X7760705Y-13850393D02*
X7751182Y-13888488D01*
X7751182Y-13888488D02*
X7741658Y-13907536D01*
X7741658Y-13907536D02*
X7732134Y-13917060D01*
X7732134Y-13917060D02*
X7713086Y-13926584D01*
X7713086Y-13926584D02*
X7694039Y-13926584D01*
X7694039Y-13926584D02*
X7674991Y-13917060D01*
X7674991Y-13917060D02*
X7665467Y-13907536D01*
X7665467Y-13907536D02*
X7655943Y-13888488D01*
X7655943Y-13888488D02*
X7646420Y-13850393D01*
X7646420Y-13850393D02*
X7646420Y-13802774D01*
X7646420Y-13802774D02*
X7655943Y-13764679D01*
X7655943Y-13764679D02*
X7665467Y-13745631D01*
X7665467Y-13745631D02*
X7674991Y-13736108D01*
X7674991Y-13736108D02*
X7694039Y-13726584D01*
X7846420Y-13926584D02*
X7846420Y-13793250D01*
X7846420Y-13812298D02*
X7855943Y-13802774D01*
X7855943Y-13802774D02*
X7874991Y-13793250D01*
X7874991Y-13793250D02*
X7903563Y-13793250D01*
X7903563Y-13793250D02*
X7922610Y-13802774D01*
X7922610Y-13802774D02*
X7932134Y-13821822D01*
X7932134Y-13821822D02*
X7932134Y-13926584D01*
X7932134Y-13821822D02*
X7941658Y-13802774D01*
X7941658Y-13802774D02*
X7960705Y-13793250D01*
X7960705Y-13793250D02*
X7989277Y-13793250D01*
X7989277Y-13793250D02*
X8008324Y-13802774D01*
X8008324Y-13802774D02*
X8017848Y-13821822D01*
X8017848Y-13821822D02*
X8017848Y-13926584D01*
X8113086Y-13926584D02*
X8113086Y-13793250D01*
X8113086Y-13812298D02*
X8122610Y-13802774D01*
X8122610Y-13802774D02*
X8141658Y-13793250D01*
X8141658Y-13793250D02*
X8170229Y-13793250D01*
X8170229Y-13793250D02*
X8189277Y-13802774D01*
X8189277Y-13802774D02*
X8198801Y-13821822D01*
X8198801Y-13821822D02*
X8198801Y-13926584D01*
X8198801Y-13821822D02*
X8208324Y-13802774D01*
X8208324Y-13802774D02*
X8227372Y-13793250D01*
X8227372Y-13793250D02*
X8255943Y-13793250D01*
X8255943Y-13793250D02*
X8274991Y-13802774D01*
X8274991Y-13802774D02*
X8284515Y-13821822D01*
X8284515Y-13821822D02*
X8284515Y-13926584D01*
X8674991Y-13717060D02*
X8503563Y-13974203D01*
X8932134Y-13726584D02*
X8951182Y-13726584D01*
X8951182Y-13726584D02*
X8970229Y-13736108D01*
X8970229Y-13736108D02*
X8979753Y-13745631D01*
X8979753Y-13745631D02*
X8989277Y-13764679D01*
X8989277Y-13764679D02*
X8998801Y-13802774D01*
X8998801Y-13802774D02*
X8998801Y-13850393D01*
X8998801Y-13850393D02*
X8989277Y-13888488D01*
X8989277Y-13888488D02*
X8979753Y-13907536D01*
X8979753Y-13907536D02*
X8970229Y-13917060D01*
X8970229Y-13917060D02*
X8951182Y-13926584D01*
X8951182Y-13926584D02*
X8932134Y-13926584D01*
X8932134Y-13926584D02*
X8913087Y-13917060D01*
X8913087Y-13917060D02*
X8903563Y-13907536D01*
X8903563Y-13907536D02*
X8894039Y-13888488D01*
X8894039Y-13888488D02*
X8884515Y-13850393D01*
X8884515Y-13850393D02*
X8884515Y-13802774D01*
X8884515Y-13802774D02*
X8894039Y-13764679D01*
X8894039Y-13764679D02*
X8903563Y-13745631D01*
X8903563Y-13745631D02*
X8913087Y-13736108D01*
X8913087Y-13736108D02*
X8932134Y-13726584D01*
X9084515Y-13907536D02*
X9094039Y-13917060D01*
X9094039Y-13917060D02*
X9084515Y-13926584D01*
X9084515Y-13926584D02*
X9074991Y-13917060D01*
X9074991Y-13917060D02*
X9084515Y-13907536D01*
X9084515Y-13907536D02*
X9084515Y-13926584D01*
X9217848Y-13726584D02*
X9236896Y-13726584D01*
X9236896Y-13726584D02*
X9255944Y-13736108D01*
X9255944Y-13736108D02*
X9265468Y-13745631D01*
X9265468Y-13745631D02*
X9274991Y-13764679D01*
X9274991Y-13764679D02*
X9284515Y-13802774D01*
X9284515Y-13802774D02*
X9284515Y-13850393D01*
X9284515Y-13850393D02*
X9274991Y-13888488D01*
X9274991Y-13888488D02*
X9265468Y-13907536D01*
X9265468Y-13907536D02*
X9255944Y-13917060D01*
X9255944Y-13917060D02*
X9236896Y-13926584D01*
X9236896Y-13926584D02*
X9217848Y-13926584D01*
X9217848Y-13926584D02*
X9198801Y-13917060D01*
X9198801Y-13917060D02*
X9189277Y-13907536D01*
X9189277Y-13907536D02*
X9179753Y-13888488D01*
X9179753Y-13888488D02*
X9170229Y-13850393D01*
X9170229Y-13850393D02*
X9170229Y-13802774D01*
X9170229Y-13802774D02*
X9179753Y-13764679D01*
X9179753Y-13764679D02*
X9189277Y-13745631D01*
X9189277Y-13745631D02*
X9198801Y-13736108D01*
X9198801Y-13736108D02*
X9217848Y-13726584D01*
X9351182Y-13726584D02*
X9474991Y-13726584D01*
X9474991Y-13726584D02*
X9408325Y-13802774D01*
X9408325Y-13802774D02*
X9436896Y-13802774D01*
X9436896Y-13802774D02*
X9455944Y-13812298D01*
X9455944Y-13812298D02*
X9465468Y-13821822D01*
X9465468Y-13821822D02*
X9474991Y-13840869D01*
X9474991Y-13840869D02*
X9474991Y-13888488D01*
X9474991Y-13888488D02*
X9465468Y-13907536D01*
X9465468Y-13907536D02*
X9455944Y-13917060D01*
X9455944Y-13917060D02*
X9436896Y-13926584D01*
X9436896Y-13926584D02*
X9379753Y-13926584D01*
X9379753Y-13926584D02*
X9360706Y-13917060D01*
X9360706Y-13917060D02*
X9351182Y-13907536D01*
X9655944Y-13726584D02*
X9560706Y-13726584D01*
X9560706Y-13726584D02*
X9551182Y-13821822D01*
X9551182Y-13821822D02*
X9560706Y-13812298D01*
X9560706Y-13812298D02*
X9579753Y-13802774D01*
X9579753Y-13802774D02*
X9627372Y-13802774D01*
X9627372Y-13802774D02*
X9646420Y-13812298D01*
X9646420Y-13812298D02*
X9655944Y-13821822D01*
X9655944Y-13821822D02*
X9665468Y-13840869D01*
X9665468Y-13840869D02*
X9665468Y-13888488D01*
X9665468Y-13888488D02*
X9655944Y-13907536D01*
X9655944Y-13907536D02*
X9646420Y-13917060D01*
X9646420Y-13917060D02*
X9627372Y-13926584D01*
X9627372Y-13926584D02*
X9579753Y-13926584D01*
X9579753Y-13926584D02*
X9560706Y-13917060D01*
X9560706Y-13917060D02*
X9551182Y-13907536D01*
X9836896Y-13793250D02*
X9836896Y-13926584D01*
X9789277Y-13717060D02*
X9741658Y-13859917D01*
X9741658Y-13859917D02*
X9865468Y-13859917D01*
X9932134Y-13726584D02*
X9932134Y-13764679D01*
X10008325Y-13726584D02*
X10008325Y-13764679D01*
X10303563Y-14002774D02*
X10294039Y-13993250D01*
X10294039Y-13993250D02*
X10274991Y-13964679D01*
X10274991Y-13964679D02*
X10265468Y-13945631D01*
X10265468Y-13945631D02*
X10255944Y-13917060D01*
X10255944Y-13917060D02*
X10246420Y-13869441D01*
X10246420Y-13869441D02*
X10246420Y-13831346D01*
X10246420Y-13831346D02*
X10255944Y-13783727D01*
X10255944Y-13783727D02*
X10265468Y-13755155D01*
X10265468Y-13755155D02*
X10274991Y-13736108D01*
X10274991Y-13736108D02*
X10294039Y-13707536D01*
X10294039Y-13707536D02*
X10303563Y-13698012D01*
X10474991Y-13726584D02*
X10379753Y-13726584D01*
X10379753Y-13726584D02*
X10370230Y-13821822D01*
X10370230Y-13821822D02*
X10379753Y-13812298D01*
X10379753Y-13812298D02*
X10398801Y-13802774D01*
X10398801Y-13802774D02*
X10446420Y-13802774D01*
X10446420Y-13802774D02*
X10465468Y-13812298D01*
X10465468Y-13812298D02*
X10474991Y-13821822D01*
X10474991Y-13821822D02*
X10484515Y-13840869D01*
X10484515Y-13840869D02*
X10484515Y-13888488D01*
X10484515Y-13888488D02*
X10474991Y-13907536D01*
X10474991Y-13907536D02*
X10465468Y-13917060D01*
X10465468Y-13917060D02*
X10446420Y-13926584D01*
X10446420Y-13926584D02*
X10398801Y-13926584D01*
X10398801Y-13926584D02*
X10379753Y-13917060D01*
X10379753Y-13917060D02*
X10370230Y-13907536D01*
X10722611Y-13926584D02*
X10722611Y-13726584D01*
X10808325Y-13926584D02*
X10808325Y-13821822D01*
X10808325Y-13821822D02*
X10798801Y-13802774D01*
X10798801Y-13802774D02*
X10779753Y-13793250D01*
X10779753Y-13793250D02*
X10751182Y-13793250D01*
X10751182Y-13793250D02*
X10732134Y-13802774D01*
X10732134Y-13802774D02*
X10722611Y-13812298D01*
X10932134Y-13926584D02*
X10913087Y-13917060D01*
X10913087Y-13917060D02*
X10903563Y-13907536D01*
X10903563Y-13907536D02*
X10894039Y-13888488D01*
X10894039Y-13888488D02*
X10894039Y-13831346D01*
X10894039Y-13831346D02*
X10903563Y-13812298D01*
X10903563Y-13812298D02*
X10913087Y-13802774D01*
X10913087Y-13802774D02*
X10932134Y-13793250D01*
X10932134Y-13793250D02*
X10960706Y-13793250D01*
X10960706Y-13793250D02*
X10979753Y-13802774D01*
X10979753Y-13802774D02*
X10989277Y-13812298D01*
X10989277Y-13812298D02*
X10998801Y-13831346D01*
X10998801Y-13831346D02*
X10998801Y-13888488D01*
X10998801Y-13888488D02*
X10989277Y-13907536D01*
X10989277Y-13907536D02*
X10979753Y-13917060D01*
X10979753Y-13917060D02*
X10960706Y-13926584D01*
X10960706Y-13926584D02*
X10932134Y-13926584D01*
X11113087Y-13926584D02*
X11094039Y-13917060D01*
X11094039Y-13917060D02*
X11084515Y-13898012D01*
X11084515Y-13898012D02*
X11084515Y-13726584D01*
X11265468Y-13917060D02*
X11246420Y-13926584D01*
X11246420Y-13926584D02*
X11208325Y-13926584D01*
X11208325Y-13926584D02*
X11189277Y-13917060D01*
X11189277Y-13917060D02*
X11179753Y-13898012D01*
X11179753Y-13898012D02*
X11179753Y-13821822D01*
X11179753Y-13821822D02*
X11189277Y-13802774D01*
X11189277Y-13802774D02*
X11208325Y-13793250D01*
X11208325Y-13793250D02*
X11246420Y-13793250D01*
X11246420Y-13793250D02*
X11265468Y-13802774D01*
X11265468Y-13802774D02*
X11274991Y-13821822D01*
X11274991Y-13821822D02*
X11274991Y-13840869D01*
X11274991Y-13840869D02*
X11179753Y-13859917D01*
X11351182Y-13917060D02*
X11370230Y-13926584D01*
X11370230Y-13926584D02*
X11408325Y-13926584D01*
X11408325Y-13926584D02*
X11427372Y-13917060D01*
X11427372Y-13917060D02*
X11436896Y-13898012D01*
X11436896Y-13898012D02*
X11436896Y-13888488D01*
X11436896Y-13888488D02*
X11427372Y-13869441D01*
X11427372Y-13869441D02*
X11408325Y-13859917D01*
X11408325Y-13859917D02*
X11379753Y-13859917D01*
X11379753Y-13859917D02*
X11360706Y-13850393D01*
X11360706Y-13850393D02*
X11351182Y-13831346D01*
X11351182Y-13831346D02*
X11351182Y-13821822D01*
X11351182Y-13821822D02*
X11360706Y-13802774D01*
X11360706Y-13802774D02*
X11379753Y-13793250D01*
X11379753Y-13793250D02*
X11408325Y-13793250D01*
X11408325Y-13793250D02*
X11427372Y-13802774D01*
X11503563Y-14002774D02*
X11513087Y-13993250D01*
X11513087Y-13993250D02*
X11532134Y-13964679D01*
X11532134Y-13964679D02*
X11541658Y-13945631D01*
X11541658Y-13945631D02*
X11551182Y-13917060D01*
X11551182Y-13917060D02*
X11560706Y-13869441D01*
X11560706Y-13869441D02*
X11560706Y-13831346D01*
X11560706Y-13831346D02*
X11551182Y-13783727D01*
X11551182Y-13783727D02*
X11541658Y-13755155D01*
X11541658Y-13755155D02*
X11532134Y-13736108D01*
X11532134Y-13736108D02*
X11513087Y-13707536D01*
X11513087Y-13707536D02*
X11503563Y-13698012D01*
D12*
X6682780Y-14053380D02*
X6682780Y-14144820D01*
X6637060Y-14099100D02*
X6728500Y-14099100D01*
D11*
X7027372Y-13990584D02*
X7046420Y-13990584D01*
X7046420Y-13990584D02*
X7065467Y-14000108D01*
X7065467Y-14000108D02*
X7074991Y-14009631D01*
X7074991Y-14009631D02*
X7084515Y-14028679D01*
X7084515Y-14028679D02*
X7094039Y-14066774D01*
X7094039Y-14066774D02*
X7094039Y-14114393D01*
X7094039Y-14114393D02*
X7084515Y-14152488D01*
X7084515Y-14152488D02*
X7074991Y-14171536D01*
X7074991Y-14171536D02*
X7065467Y-14181060D01*
X7065467Y-14181060D02*
X7046420Y-14190584D01*
X7046420Y-14190584D02*
X7027372Y-14190584D01*
X7027372Y-14190584D02*
X7008324Y-14181060D01*
X7008324Y-14181060D02*
X6998801Y-14171536D01*
X6998801Y-14171536D02*
X6989277Y-14152488D01*
X6989277Y-14152488D02*
X6979753Y-14114393D01*
X6979753Y-14114393D02*
X6979753Y-14066774D01*
X6979753Y-14066774D02*
X6989277Y-14028679D01*
X6989277Y-14028679D02*
X6998801Y-14009631D01*
X6998801Y-14009631D02*
X7008324Y-14000108D01*
X7008324Y-14000108D02*
X7027372Y-13990584D01*
X7179753Y-14171536D02*
X7189277Y-14181060D01*
X7189277Y-14181060D02*
X7179753Y-14190584D01*
X7179753Y-14190584D02*
X7170229Y-14181060D01*
X7170229Y-14181060D02*
X7179753Y-14171536D01*
X7179753Y-14171536D02*
X7179753Y-14190584D01*
X7284515Y-14190584D02*
X7322610Y-14190584D01*
X7322610Y-14190584D02*
X7341658Y-14181060D01*
X7341658Y-14181060D02*
X7351182Y-14171536D01*
X7351182Y-14171536D02*
X7370229Y-14142965D01*
X7370229Y-14142965D02*
X7379753Y-14104869D01*
X7379753Y-14104869D02*
X7379753Y-14028679D01*
X7379753Y-14028679D02*
X7370229Y-14009631D01*
X7370229Y-14009631D02*
X7360705Y-14000108D01*
X7360705Y-14000108D02*
X7341658Y-13990584D01*
X7341658Y-13990584D02*
X7303562Y-13990584D01*
X7303562Y-13990584D02*
X7284515Y-14000108D01*
X7284515Y-14000108D02*
X7274991Y-14009631D01*
X7274991Y-14009631D02*
X7265467Y-14028679D01*
X7265467Y-14028679D02*
X7265467Y-14076298D01*
X7265467Y-14076298D02*
X7274991Y-14095346D01*
X7274991Y-14095346D02*
X7284515Y-14104869D01*
X7284515Y-14104869D02*
X7303562Y-14114393D01*
X7303562Y-14114393D02*
X7341658Y-14114393D01*
X7341658Y-14114393D02*
X7360705Y-14104869D01*
X7360705Y-14104869D02*
X7370229Y-14095346D01*
X7370229Y-14095346D02*
X7379753Y-14076298D01*
X7570229Y-14190584D02*
X7455943Y-14190584D01*
X7513086Y-14190584D02*
X7513086Y-13990584D01*
X7513086Y-13990584D02*
X7494039Y-14019155D01*
X7494039Y-14019155D02*
X7474991Y-14038203D01*
X7474991Y-14038203D02*
X7455943Y-14047727D01*
X7741658Y-14057250D02*
X7741658Y-14190584D01*
X7694039Y-13981060D02*
X7646420Y-14123917D01*
X7646420Y-14123917D02*
X7770229Y-14123917D01*
X7846420Y-14190584D02*
X7846420Y-14057250D01*
X7846420Y-14076298D02*
X7855943Y-14066774D01*
X7855943Y-14066774D02*
X7874991Y-14057250D01*
X7874991Y-14057250D02*
X7903563Y-14057250D01*
X7903563Y-14057250D02*
X7922610Y-14066774D01*
X7922610Y-14066774D02*
X7932134Y-14085822D01*
X7932134Y-14085822D02*
X7932134Y-14190584D01*
X7932134Y-14085822D02*
X7941658Y-14066774D01*
X7941658Y-14066774D02*
X7960705Y-14057250D01*
X7960705Y-14057250D02*
X7989277Y-14057250D01*
X7989277Y-14057250D02*
X8008324Y-14066774D01*
X8008324Y-14066774D02*
X8017848Y-14085822D01*
X8017848Y-14085822D02*
X8017848Y-14190584D01*
X8113086Y-14190584D02*
X8113086Y-14057250D01*
X8113086Y-14076298D02*
X8122610Y-14066774D01*
X8122610Y-14066774D02*
X8141658Y-14057250D01*
X8141658Y-14057250D02*
X8170229Y-14057250D01*
X8170229Y-14057250D02*
X8189277Y-14066774D01*
X8189277Y-14066774D02*
X8198801Y-14085822D01*
X8198801Y-14085822D02*
X8198801Y-14190584D01*
X8198801Y-14085822D02*
X8208324Y-14066774D01*
X8208324Y-14066774D02*
X8227372Y-14057250D01*
X8227372Y-14057250D02*
X8255943Y-14057250D01*
X8255943Y-14057250D02*
X8274991Y-14066774D01*
X8274991Y-14066774D02*
X8284515Y-14085822D01*
X8284515Y-14085822D02*
X8284515Y-14190584D01*
X8674991Y-13981060D02*
X8503563Y-14238203D01*
X8932134Y-13990584D02*
X8951182Y-13990584D01*
X8951182Y-13990584D02*
X8970229Y-14000108D01*
X8970229Y-14000108D02*
X8979753Y-14009631D01*
X8979753Y-14009631D02*
X8989277Y-14028679D01*
X8989277Y-14028679D02*
X8998801Y-14066774D01*
X8998801Y-14066774D02*
X8998801Y-14114393D01*
X8998801Y-14114393D02*
X8989277Y-14152488D01*
X8989277Y-14152488D02*
X8979753Y-14171536D01*
X8979753Y-14171536D02*
X8970229Y-14181060D01*
X8970229Y-14181060D02*
X8951182Y-14190584D01*
X8951182Y-14190584D02*
X8932134Y-14190584D01*
X8932134Y-14190584D02*
X8913087Y-14181060D01*
X8913087Y-14181060D02*
X8903563Y-14171536D01*
X8903563Y-14171536D02*
X8894039Y-14152488D01*
X8894039Y-14152488D02*
X8884515Y-14114393D01*
X8884515Y-14114393D02*
X8884515Y-14066774D01*
X8884515Y-14066774D02*
X8894039Y-14028679D01*
X8894039Y-14028679D02*
X8903563Y-14009631D01*
X8903563Y-14009631D02*
X8913087Y-14000108D01*
X8913087Y-14000108D02*
X8932134Y-13990584D01*
X9084515Y-14171536D02*
X9094039Y-14181060D01*
X9094039Y-14181060D02*
X9084515Y-14190584D01*
X9084515Y-14190584D02*
X9074991Y-14181060D01*
X9074991Y-14181060D02*
X9084515Y-14171536D01*
X9084515Y-14171536D02*
X9084515Y-14190584D01*
X9217848Y-13990584D02*
X9236896Y-13990584D01*
X9236896Y-13990584D02*
X9255944Y-14000108D01*
X9255944Y-14000108D02*
X9265468Y-14009631D01*
X9265468Y-14009631D02*
X9274991Y-14028679D01*
X9274991Y-14028679D02*
X9284515Y-14066774D01*
X9284515Y-14066774D02*
X9284515Y-14114393D01*
X9284515Y-14114393D02*
X9274991Y-14152488D01*
X9274991Y-14152488D02*
X9265468Y-14171536D01*
X9265468Y-14171536D02*
X9255944Y-14181060D01*
X9255944Y-14181060D02*
X9236896Y-14190584D01*
X9236896Y-14190584D02*
X9217848Y-14190584D01*
X9217848Y-14190584D02*
X9198801Y-14181060D01*
X9198801Y-14181060D02*
X9189277Y-14171536D01*
X9189277Y-14171536D02*
X9179753Y-14152488D01*
X9179753Y-14152488D02*
X9170229Y-14114393D01*
X9170229Y-14114393D02*
X9170229Y-14066774D01*
X9170229Y-14066774D02*
X9179753Y-14028679D01*
X9179753Y-14028679D02*
X9189277Y-14009631D01*
X9189277Y-14009631D02*
X9198801Y-14000108D01*
X9198801Y-14000108D02*
X9217848Y-13990584D01*
X9351182Y-13990584D02*
X9474991Y-13990584D01*
X9474991Y-13990584D02*
X9408325Y-14066774D01*
X9408325Y-14066774D02*
X9436896Y-14066774D01*
X9436896Y-14066774D02*
X9455944Y-14076298D01*
X9455944Y-14076298D02*
X9465468Y-14085822D01*
X9465468Y-14085822D02*
X9474991Y-14104869D01*
X9474991Y-14104869D02*
X9474991Y-14152488D01*
X9474991Y-14152488D02*
X9465468Y-14171536D01*
X9465468Y-14171536D02*
X9455944Y-14181060D01*
X9455944Y-14181060D02*
X9436896Y-14190584D01*
X9436896Y-14190584D02*
X9379753Y-14190584D01*
X9379753Y-14190584D02*
X9360706Y-14181060D01*
X9360706Y-14181060D02*
X9351182Y-14171536D01*
X9646420Y-13990584D02*
X9608325Y-13990584D01*
X9608325Y-13990584D02*
X9589277Y-14000108D01*
X9589277Y-14000108D02*
X9579753Y-14009631D01*
X9579753Y-14009631D02*
X9560706Y-14038203D01*
X9560706Y-14038203D02*
X9551182Y-14076298D01*
X9551182Y-14076298D02*
X9551182Y-14152488D01*
X9551182Y-14152488D02*
X9560706Y-14171536D01*
X9560706Y-14171536D02*
X9570229Y-14181060D01*
X9570229Y-14181060D02*
X9589277Y-14190584D01*
X9589277Y-14190584D02*
X9627372Y-14190584D01*
X9627372Y-14190584D02*
X9646420Y-14181060D01*
X9646420Y-14181060D02*
X9655944Y-14171536D01*
X9655944Y-14171536D02*
X9665468Y-14152488D01*
X9665468Y-14152488D02*
X9665468Y-14104869D01*
X9665468Y-14104869D02*
X9655944Y-14085822D01*
X9655944Y-14085822D02*
X9646420Y-14076298D01*
X9646420Y-14076298D02*
X9627372Y-14066774D01*
X9627372Y-14066774D02*
X9589277Y-14066774D01*
X9589277Y-14066774D02*
X9570229Y-14076298D01*
X9570229Y-14076298D02*
X9560706Y-14085822D01*
X9560706Y-14085822D02*
X9551182Y-14104869D01*
X9789277Y-13990584D02*
X9808325Y-13990584D01*
X9808325Y-13990584D02*
X9827372Y-14000108D01*
X9827372Y-14000108D02*
X9836896Y-14009631D01*
X9836896Y-14009631D02*
X9846420Y-14028679D01*
X9846420Y-14028679D02*
X9855944Y-14066774D01*
X9855944Y-14066774D02*
X9855944Y-14114393D01*
X9855944Y-14114393D02*
X9846420Y-14152488D01*
X9846420Y-14152488D02*
X9836896Y-14171536D01*
X9836896Y-14171536D02*
X9827372Y-14181060D01*
X9827372Y-14181060D02*
X9808325Y-14190584D01*
X9808325Y-14190584D02*
X9789277Y-14190584D01*
X9789277Y-14190584D02*
X9770229Y-14181060D01*
X9770229Y-14181060D02*
X9760706Y-14171536D01*
X9760706Y-14171536D02*
X9751182Y-14152488D01*
X9751182Y-14152488D02*
X9741658Y-14114393D01*
X9741658Y-14114393D02*
X9741658Y-14066774D01*
X9741658Y-14066774D02*
X9751182Y-14028679D01*
X9751182Y-14028679D02*
X9760706Y-14009631D01*
X9760706Y-14009631D02*
X9770229Y-14000108D01*
X9770229Y-14000108D02*
X9789277Y-13990584D01*
X9932134Y-13990584D02*
X9932134Y-14028679D01*
X10008325Y-13990584D02*
X10008325Y-14028679D01*
X10303563Y-14266774D02*
X10294039Y-14257250D01*
X10294039Y-14257250D02*
X10274991Y-14228679D01*
X10274991Y-14228679D02*
X10265468Y-14209631D01*
X10265468Y-14209631D02*
X10255944Y-14181060D01*
X10255944Y-14181060D02*
X10246420Y-14133441D01*
X10246420Y-14133441D02*
X10246420Y-14095346D01*
X10246420Y-14095346D02*
X10255944Y-14047727D01*
X10255944Y-14047727D02*
X10265468Y-14019155D01*
X10265468Y-14019155D02*
X10274991Y-14000108D01*
X10274991Y-14000108D02*
X10294039Y-13971536D01*
X10294039Y-13971536D02*
X10303563Y-13962012D01*
X10360706Y-13990584D02*
X10484515Y-13990584D01*
X10484515Y-13990584D02*
X10417849Y-14066774D01*
X10417849Y-14066774D02*
X10446420Y-14066774D01*
X10446420Y-14066774D02*
X10465468Y-14076298D01*
X10465468Y-14076298D02*
X10474991Y-14085822D01*
X10474991Y-14085822D02*
X10484515Y-14104869D01*
X10484515Y-14104869D02*
X10484515Y-14152488D01*
X10484515Y-14152488D02*
X10474991Y-14171536D01*
X10474991Y-14171536D02*
X10465468Y-14181060D01*
X10465468Y-14181060D02*
X10446420Y-14190584D01*
X10446420Y-14190584D02*
X10389277Y-14190584D01*
X10389277Y-14190584D02*
X10370230Y-14181060D01*
X10370230Y-14181060D02*
X10360706Y-14171536D01*
X10608325Y-13990584D02*
X10627372Y-13990584D01*
X10627372Y-13990584D02*
X10646420Y-14000108D01*
X10646420Y-14000108D02*
X10655944Y-14009631D01*
X10655944Y-14009631D02*
X10665468Y-14028679D01*
X10665468Y-14028679D02*
X10674991Y-14066774D01*
X10674991Y-14066774D02*
X10674991Y-14114393D01*
X10674991Y-14114393D02*
X10665468Y-14152488D01*
X10665468Y-14152488D02*
X10655944Y-14171536D01*
X10655944Y-14171536D02*
X10646420Y-14181060D01*
X10646420Y-14181060D02*
X10627372Y-14190584D01*
X10627372Y-14190584D02*
X10608325Y-14190584D01*
X10608325Y-14190584D02*
X10589277Y-14181060D01*
X10589277Y-14181060D02*
X10579753Y-14171536D01*
X10579753Y-14171536D02*
X10570230Y-14152488D01*
X10570230Y-14152488D02*
X10560706Y-14114393D01*
X10560706Y-14114393D02*
X10560706Y-14066774D01*
X10560706Y-14066774D02*
X10570230Y-14028679D01*
X10570230Y-14028679D02*
X10579753Y-14009631D01*
X10579753Y-14009631D02*
X10589277Y-14000108D01*
X10589277Y-14000108D02*
X10608325Y-13990584D01*
X10913087Y-14190584D02*
X10913087Y-13990584D01*
X10998801Y-14190584D02*
X10998801Y-14085822D01*
X10998801Y-14085822D02*
X10989277Y-14066774D01*
X10989277Y-14066774D02*
X10970230Y-14057250D01*
X10970230Y-14057250D02*
X10941658Y-14057250D01*
X10941658Y-14057250D02*
X10922611Y-14066774D01*
X10922611Y-14066774D02*
X10913087Y-14076298D01*
X11122611Y-14190584D02*
X11103563Y-14181060D01*
X11103563Y-14181060D02*
X11094039Y-14171536D01*
X11094039Y-14171536D02*
X11084515Y-14152488D01*
X11084515Y-14152488D02*
X11084515Y-14095346D01*
X11084515Y-14095346D02*
X11094039Y-14076298D01*
X11094039Y-14076298D02*
X11103563Y-14066774D01*
X11103563Y-14066774D02*
X11122611Y-14057250D01*
X11122611Y-14057250D02*
X11151182Y-14057250D01*
X11151182Y-14057250D02*
X11170230Y-14066774D01*
X11170230Y-14066774D02*
X11179753Y-14076298D01*
X11179753Y-14076298D02*
X11189277Y-14095346D01*
X11189277Y-14095346D02*
X11189277Y-14152488D01*
X11189277Y-14152488D02*
X11179753Y-14171536D01*
X11179753Y-14171536D02*
X11170230Y-14181060D01*
X11170230Y-14181060D02*
X11151182Y-14190584D01*
X11151182Y-14190584D02*
X11122611Y-14190584D01*
X11303563Y-14190584D02*
X11284515Y-14181060D01*
X11284515Y-14181060D02*
X11274991Y-14162012D01*
X11274991Y-14162012D02*
X11274991Y-13990584D01*
X11455944Y-14181060D02*
X11436896Y-14190584D01*
X11436896Y-14190584D02*
X11398801Y-14190584D01*
X11398801Y-14190584D02*
X11379753Y-14181060D01*
X11379753Y-14181060D02*
X11370230Y-14162012D01*
X11370230Y-14162012D02*
X11370230Y-14085822D01*
X11370230Y-14085822D02*
X11379753Y-14066774D01*
X11379753Y-14066774D02*
X11398801Y-14057250D01*
X11398801Y-14057250D02*
X11436896Y-14057250D01*
X11436896Y-14057250D02*
X11455944Y-14066774D01*
X11455944Y-14066774D02*
X11465468Y-14085822D01*
X11465468Y-14085822D02*
X11465468Y-14104869D01*
X11465468Y-14104869D02*
X11370230Y-14123917D01*
X11541658Y-14181060D02*
X11560706Y-14190584D01*
X11560706Y-14190584D02*
X11598801Y-14190584D01*
X11598801Y-14190584D02*
X11617849Y-14181060D01*
X11617849Y-14181060D02*
X11627372Y-14162012D01*
X11627372Y-14162012D02*
X11627372Y-14152488D01*
X11627372Y-14152488D02*
X11617849Y-14133441D01*
X11617849Y-14133441D02*
X11598801Y-14123917D01*
X11598801Y-14123917D02*
X11570230Y-14123917D01*
X11570230Y-14123917D02*
X11551182Y-14114393D01*
X11551182Y-14114393D02*
X11541658Y-14095346D01*
X11541658Y-14095346D02*
X11541658Y-14085822D01*
X11541658Y-14085822D02*
X11551182Y-14066774D01*
X11551182Y-14066774D02*
X11570230Y-14057250D01*
X11570230Y-14057250D02*
X11598801Y-14057250D01*
X11598801Y-14057250D02*
X11617849Y-14066774D01*
X11694039Y-14266774D02*
X11703563Y-14257250D01*
X11703563Y-14257250D02*
X11722611Y-14228679D01*
X11722611Y-14228679D02*
X11732134Y-14209631D01*
X11732134Y-14209631D02*
X11741658Y-14181060D01*
X11741658Y-14181060D02*
X11751182Y-14133441D01*
X11751182Y-14133441D02*
X11751182Y-14095346D01*
X11751182Y-14095346D02*
X11741658Y-14047727D01*
X11741658Y-14047727D02*
X11732134Y-14019155D01*
X11732134Y-14019155D02*
X11722611Y-14000108D01*
X11722611Y-14000108D02*
X11703563Y-13971536D01*
X11703563Y-13971536D02*
X11694039Y-13962012D01*
D12*
X6713856Y-14398456D02*
X6713856Y-14327744D01*
X6643144Y-14327744D01*
X6643144Y-14398456D01*
X6713856Y-14398456D01*
D11*
X7094039Y-14454584D02*
X6979753Y-14454584D01*
X7036896Y-14454584D02*
X7036896Y-14254584D01*
X7036896Y-14254584D02*
X7017848Y-14283155D01*
X7017848Y-14283155D02*
X6998801Y-14302203D01*
X6998801Y-14302203D02*
X6979753Y-14311727D01*
X7179753Y-14435536D02*
X7189277Y-14445060D01*
X7189277Y-14445060D02*
X7179753Y-14454584D01*
X7179753Y-14454584D02*
X7170229Y-14445060D01*
X7170229Y-14445060D02*
X7179753Y-14435536D01*
X7179753Y-14435536D02*
X7179753Y-14454584D01*
X7313086Y-14254584D02*
X7332134Y-14254584D01*
X7332134Y-14254584D02*
X7351182Y-14264108D01*
X7351182Y-14264108D02*
X7360705Y-14273631D01*
X7360705Y-14273631D02*
X7370229Y-14292679D01*
X7370229Y-14292679D02*
X7379753Y-14330774D01*
X7379753Y-14330774D02*
X7379753Y-14378393D01*
X7379753Y-14378393D02*
X7370229Y-14416488D01*
X7370229Y-14416488D02*
X7360705Y-14435536D01*
X7360705Y-14435536D02*
X7351182Y-14445060D01*
X7351182Y-14445060D02*
X7332134Y-14454584D01*
X7332134Y-14454584D02*
X7313086Y-14454584D01*
X7313086Y-14454584D02*
X7294039Y-14445060D01*
X7294039Y-14445060D02*
X7284515Y-14435536D01*
X7284515Y-14435536D02*
X7274991Y-14416488D01*
X7274991Y-14416488D02*
X7265467Y-14378393D01*
X7265467Y-14378393D02*
X7265467Y-14330774D01*
X7265467Y-14330774D02*
X7274991Y-14292679D01*
X7274991Y-14292679D02*
X7284515Y-14273631D01*
X7284515Y-14273631D02*
X7294039Y-14264108D01*
X7294039Y-14264108D02*
X7313086Y-14254584D01*
X7503562Y-14254584D02*
X7522610Y-14254584D01*
X7522610Y-14254584D02*
X7541658Y-14264108D01*
X7541658Y-14264108D02*
X7551182Y-14273631D01*
X7551182Y-14273631D02*
X7560705Y-14292679D01*
X7560705Y-14292679D02*
X7570229Y-14330774D01*
X7570229Y-14330774D02*
X7570229Y-14378393D01*
X7570229Y-14378393D02*
X7560705Y-14416488D01*
X7560705Y-14416488D02*
X7551182Y-14435536D01*
X7551182Y-14435536D02*
X7541658Y-14445060D01*
X7541658Y-14445060D02*
X7522610Y-14454584D01*
X7522610Y-14454584D02*
X7503562Y-14454584D01*
X7503562Y-14454584D02*
X7484515Y-14445060D01*
X7484515Y-14445060D02*
X7474991Y-14435536D01*
X7474991Y-14435536D02*
X7465467Y-14416488D01*
X7465467Y-14416488D02*
X7455943Y-14378393D01*
X7455943Y-14378393D02*
X7455943Y-14330774D01*
X7455943Y-14330774D02*
X7465467Y-14292679D01*
X7465467Y-14292679D02*
X7474991Y-14273631D01*
X7474991Y-14273631D02*
X7484515Y-14264108D01*
X7484515Y-14264108D02*
X7503562Y-14254584D01*
X7694039Y-14254584D02*
X7713086Y-14254584D01*
X7713086Y-14254584D02*
X7732134Y-14264108D01*
X7732134Y-14264108D02*
X7741658Y-14273631D01*
X7741658Y-14273631D02*
X7751182Y-14292679D01*
X7751182Y-14292679D02*
X7760705Y-14330774D01*
X7760705Y-14330774D02*
X7760705Y-14378393D01*
X7760705Y-14378393D02*
X7751182Y-14416488D01*
X7751182Y-14416488D02*
X7741658Y-14435536D01*
X7741658Y-14435536D02*
X7732134Y-14445060D01*
X7732134Y-14445060D02*
X7713086Y-14454584D01*
X7713086Y-14454584D02*
X7694039Y-14454584D01*
X7694039Y-14454584D02*
X7674991Y-14445060D01*
X7674991Y-14445060D02*
X7665467Y-14435536D01*
X7665467Y-14435536D02*
X7655943Y-14416488D01*
X7655943Y-14416488D02*
X7646420Y-14378393D01*
X7646420Y-14378393D02*
X7646420Y-14330774D01*
X7646420Y-14330774D02*
X7655943Y-14292679D01*
X7655943Y-14292679D02*
X7665467Y-14273631D01*
X7665467Y-14273631D02*
X7674991Y-14264108D01*
X7674991Y-14264108D02*
X7694039Y-14254584D01*
X7846420Y-14454584D02*
X7846420Y-14321250D01*
X7846420Y-14340298D02*
X7855943Y-14330774D01*
X7855943Y-14330774D02*
X7874991Y-14321250D01*
X7874991Y-14321250D02*
X7903563Y-14321250D01*
X7903563Y-14321250D02*
X7922610Y-14330774D01*
X7922610Y-14330774D02*
X7932134Y-14349822D01*
X7932134Y-14349822D02*
X7932134Y-14454584D01*
X7932134Y-14349822D02*
X7941658Y-14330774D01*
X7941658Y-14330774D02*
X7960705Y-14321250D01*
X7960705Y-14321250D02*
X7989277Y-14321250D01*
X7989277Y-14321250D02*
X8008324Y-14330774D01*
X8008324Y-14330774D02*
X8017848Y-14349822D01*
X8017848Y-14349822D02*
X8017848Y-14454584D01*
X8113086Y-14454584D02*
X8113086Y-14321250D01*
X8113086Y-14340298D02*
X8122610Y-14330774D01*
X8122610Y-14330774D02*
X8141658Y-14321250D01*
X8141658Y-14321250D02*
X8170229Y-14321250D01*
X8170229Y-14321250D02*
X8189277Y-14330774D01*
X8189277Y-14330774D02*
X8198801Y-14349822D01*
X8198801Y-14349822D02*
X8198801Y-14454584D01*
X8198801Y-14349822D02*
X8208324Y-14330774D01*
X8208324Y-14330774D02*
X8227372Y-14321250D01*
X8227372Y-14321250D02*
X8255943Y-14321250D01*
X8255943Y-14321250D02*
X8274991Y-14330774D01*
X8274991Y-14330774D02*
X8284515Y-14349822D01*
X8284515Y-14349822D02*
X8284515Y-14454584D01*
X8674991Y-14245060D02*
X8503563Y-14502203D01*
X8932134Y-14254584D02*
X8951182Y-14254584D01*
X8951182Y-14254584D02*
X8970229Y-14264108D01*
X8970229Y-14264108D02*
X8979753Y-14273631D01*
X8979753Y-14273631D02*
X8989277Y-14292679D01*
X8989277Y-14292679D02*
X8998801Y-14330774D01*
X8998801Y-14330774D02*
X8998801Y-14378393D01*
X8998801Y-14378393D02*
X8989277Y-14416488D01*
X8989277Y-14416488D02*
X8979753Y-14435536D01*
X8979753Y-14435536D02*
X8970229Y-14445060D01*
X8970229Y-14445060D02*
X8951182Y-14454584D01*
X8951182Y-14454584D02*
X8932134Y-14454584D01*
X8932134Y-14454584D02*
X8913087Y-14445060D01*
X8913087Y-14445060D02*
X8903563Y-14435536D01*
X8903563Y-14435536D02*
X8894039Y-14416488D01*
X8894039Y-14416488D02*
X8884515Y-14378393D01*
X8884515Y-14378393D02*
X8884515Y-14330774D01*
X8884515Y-14330774D02*
X8894039Y-14292679D01*
X8894039Y-14292679D02*
X8903563Y-14273631D01*
X8903563Y-14273631D02*
X8913087Y-14264108D01*
X8913087Y-14264108D02*
X8932134Y-14254584D01*
X9084515Y-14435536D02*
X9094039Y-14445060D01*
X9094039Y-14445060D02*
X9084515Y-14454584D01*
X9084515Y-14454584D02*
X9074991Y-14445060D01*
X9074991Y-14445060D02*
X9084515Y-14435536D01*
X9084515Y-14435536D02*
X9084515Y-14454584D01*
X9217848Y-14254584D02*
X9236896Y-14254584D01*
X9236896Y-14254584D02*
X9255944Y-14264108D01*
X9255944Y-14264108D02*
X9265468Y-14273631D01*
X9265468Y-14273631D02*
X9274991Y-14292679D01*
X9274991Y-14292679D02*
X9284515Y-14330774D01*
X9284515Y-14330774D02*
X9284515Y-14378393D01*
X9284515Y-14378393D02*
X9274991Y-14416488D01*
X9274991Y-14416488D02*
X9265468Y-14435536D01*
X9265468Y-14435536D02*
X9255944Y-14445060D01*
X9255944Y-14445060D02*
X9236896Y-14454584D01*
X9236896Y-14454584D02*
X9217848Y-14454584D01*
X9217848Y-14454584D02*
X9198801Y-14445060D01*
X9198801Y-14445060D02*
X9189277Y-14435536D01*
X9189277Y-14435536D02*
X9179753Y-14416488D01*
X9179753Y-14416488D02*
X9170229Y-14378393D01*
X9170229Y-14378393D02*
X9170229Y-14330774D01*
X9170229Y-14330774D02*
X9179753Y-14292679D01*
X9179753Y-14292679D02*
X9189277Y-14273631D01*
X9189277Y-14273631D02*
X9198801Y-14264108D01*
X9198801Y-14264108D02*
X9217848Y-14254584D01*
X9351182Y-14254584D02*
X9474991Y-14254584D01*
X9474991Y-14254584D02*
X9408325Y-14330774D01*
X9408325Y-14330774D02*
X9436896Y-14330774D01*
X9436896Y-14330774D02*
X9455944Y-14340298D01*
X9455944Y-14340298D02*
X9465468Y-14349822D01*
X9465468Y-14349822D02*
X9474991Y-14368869D01*
X9474991Y-14368869D02*
X9474991Y-14416488D01*
X9474991Y-14416488D02*
X9465468Y-14435536D01*
X9465468Y-14435536D02*
X9455944Y-14445060D01*
X9455944Y-14445060D02*
X9436896Y-14454584D01*
X9436896Y-14454584D02*
X9379753Y-14454584D01*
X9379753Y-14454584D02*
X9360706Y-14445060D01*
X9360706Y-14445060D02*
X9351182Y-14435536D01*
X9570229Y-14454584D02*
X9608325Y-14454584D01*
X9608325Y-14454584D02*
X9627372Y-14445060D01*
X9627372Y-14445060D02*
X9636896Y-14435536D01*
X9636896Y-14435536D02*
X9655944Y-14406965D01*
X9655944Y-14406965D02*
X9665468Y-14368869D01*
X9665468Y-14368869D02*
X9665468Y-14292679D01*
X9665468Y-14292679D02*
X9655944Y-14273631D01*
X9655944Y-14273631D02*
X9646420Y-14264108D01*
X9646420Y-14264108D02*
X9627372Y-14254584D01*
X9627372Y-14254584D02*
X9589277Y-14254584D01*
X9589277Y-14254584D02*
X9570229Y-14264108D01*
X9570229Y-14264108D02*
X9560706Y-14273631D01*
X9560706Y-14273631D02*
X9551182Y-14292679D01*
X9551182Y-14292679D02*
X9551182Y-14340298D01*
X9551182Y-14340298D02*
X9560706Y-14359346D01*
X9560706Y-14359346D02*
X9570229Y-14368869D01*
X9570229Y-14368869D02*
X9589277Y-14378393D01*
X9589277Y-14378393D02*
X9627372Y-14378393D01*
X9627372Y-14378393D02*
X9646420Y-14368869D01*
X9646420Y-14368869D02*
X9655944Y-14359346D01*
X9655944Y-14359346D02*
X9665468Y-14340298D01*
X9836896Y-14321250D02*
X9836896Y-14454584D01*
X9789277Y-14245060D02*
X9741658Y-14387917D01*
X9741658Y-14387917D02*
X9865468Y-14387917D01*
X9932134Y-14254584D02*
X9932134Y-14292679D01*
X10008325Y-14254584D02*
X10008325Y-14292679D01*
X10303563Y-14530774D02*
X10294039Y-14521250D01*
X10294039Y-14521250D02*
X10274991Y-14492679D01*
X10274991Y-14492679D02*
X10265468Y-14473631D01*
X10265468Y-14473631D02*
X10255944Y-14445060D01*
X10255944Y-14445060D02*
X10246420Y-14397441D01*
X10246420Y-14397441D02*
X10246420Y-14359346D01*
X10246420Y-14359346D02*
X10255944Y-14311727D01*
X10255944Y-14311727D02*
X10265468Y-14283155D01*
X10265468Y-14283155D02*
X10274991Y-14264108D01*
X10274991Y-14264108D02*
X10294039Y-14235536D01*
X10294039Y-14235536D02*
X10303563Y-14226012D01*
X10370230Y-14273631D02*
X10379753Y-14264108D01*
X10379753Y-14264108D02*
X10398801Y-14254584D01*
X10398801Y-14254584D02*
X10446420Y-14254584D01*
X10446420Y-14254584D02*
X10465468Y-14264108D01*
X10465468Y-14264108D02*
X10474991Y-14273631D01*
X10474991Y-14273631D02*
X10484515Y-14292679D01*
X10484515Y-14292679D02*
X10484515Y-14311727D01*
X10484515Y-14311727D02*
X10474991Y-14340298D01*
X10474991Y-14340298D02*
X10360706Y-14454584D01*
X10360706Y-14454584D02*
X10484515Y-14454584D01*
X10722611Y-14454584D02*
X10722611Y-14254584D01*
X10808325Y-14454584D02*
X10808325Y-14349822D01*
X10808325Y-14349822D02*
X10798801Y-14330774D01*
X10798801Y-14330774D02*
X10779753Y-14321250D01*
X10779753Y-14321250D02*
X10751182Y-14321250D01*
X10751182Y-14321250D02*
X10732134Y-14330774D01*
X10732134Y-14330774D02*
X10722611Y-14340298D01*
X10932134Y-14454584D02*
X10913087Y-14445060D01*
X10913087Y-14445060D02*
X10903563Y-14435536D01*
X10903563Y-14435536D02*
X10894039Y-14416488D01*
X10894039Y-14416488D02*
X10894039Y-14359346D01*
X10894039Y-14359346D02*
X10903563Y-14340298D01*
X10903563Y-14340298D02*
X10913087Y-14330774D01*
X10913087Y-14330774D02*
X10932134Y-14321250D01*
X10932134Y-14321250D02*
X10960706Y-14321250D01*
X10960706Y-14321250D02*
X10979753Y-14330774D01*
X10979753Y-14330774D02*
X10989277Y-14340298D01*
X10989277Y-14340298D02*
X10998801Y-14359346D01*
X10998801Y-14359346D02*
X10998801Y-14416488D01*
X10998801Y-14416488D02*
X10989277Y-14435536D01*
X10989277Y-14435536D02*
X10979753Y-14445060D01*
X10979753Y-14445060D02*
X10960706Y-14454584D01*
X10960706Y-14454584D02*
X10932134Y-14454584D01*
X11113087Y-14454584D02*
X11094039Y-14445060D01*
X11094039Y-14445060D02*
X11084515Y-14426012D01*
X11084515Y-14426012D02*
X11084515Y-14254584D01*
X11265468Y-14445060D02*
X11246420Y-14454584D01*
X11246420Y-14454584D02*
X11208325Y-14454584D01*
X11208325Y-14454584D02*
X11189277Y-14445060D01*
X11189277Y-14445060D02*
X11179753Y-14426012D01*
X11179753Y-14426012D02*
X11179753Y-14349822D01*
X11179753Y-14349822D02*
X11189277Y-14330774D01*
X11189277Y-14330774D02*
X11208325Y-14321250D01*
X11208325Y-14321250D02*
X11246420Y-14321250D01*
X11246420Y-14321250D02*
X11265468Y-14330774D01*
X11265468Y-14330774D02*
X11274991Y-14349822D01*
X11274991Y-14349822D02*
X11274991Y-14368869D01*
X11274991Y-14368869D02*
X11179753Y-14387917D01*
X11351182Y-14445060D02*
X11370230Y-14454584D01*
X11370230Y-14454584D02*
X11408325Y-14454584D01*
X11408325Y-14454584D02*
X11427372Y-14445060D01*
X11427372Y-14445060D02*
X11436896Y-14426012D01*
X11436896Y-14426012D02*
X11436896Y-14416488D01*
X11436896Y-14416488D02*
X11427372Y-14397441D01*
X11427372Y-14397441D02*
X11408325Y-14387917D01*
X11408325Y-14387917D02*
X11379753Y-14387917D01*
X11379753Y-14387917D02*
X11360706Y-14378393D01*
X11360706Y-14378393D02*
X11351182Y-14359346D01*
X11351182Y-14359346D02*
X11351182Y-14349822D01*
X11351182Y-14349822D02*
X11360706Y-14330774D01*
X11360706Y-14330774D02*
X11379753Y-14321250D01*
X11379753Y-14321250D02*
X11408325Y-14321250D01*
X11408325Y-14321250D02*
X11427372Y-14330774D01*
X11503563Y-14530774D02*
X11513087Y-14521250D01*
X11513087Y-14521250D02*
X11532134Y-14492679D01*
X11532134Y-14492679D02*
X11541658Y-14473631D01*
X11541658Y-14473631D02*
X11551182Y-14445060D01*
X11551182Y-14445060D02*
X11560706Y-14397441D01*
X11560706Y-14397441D02*
X11560706Y-14359346D01*
X11560706Y-14359346D02*
X11551182Y-14311727D01*
X11551182Y-14311727D02*
X11541658Y-14283155D01*
X11541658Y-14283155D02*
X11532134Y-14264108D01*
X11532134Y-14264108D02*
X11513087Y-14235536D01*
X11513087Y-14235536D02*
X11503563Y-14226012D01*
D13*
X6658500Y-14697100D02*
X6728500Y-14627100D01*
X6658500Y-14557100D01*
X6588500Y-14627100D01*
X6658500Y-14697100D01*
D11*
X7094039Y-14718584D02*
X6979753Y-14718584D01*
X7036896Y-14718584D02*
X7036896Y-14518584D01*
X7036896Y-14518584D02*
X7017848Y-14547155D01*
X7017848Y-14547155D02*
X6998801Y-14566203D01*
X6998801Y-14566203D02*
X6979753Y-14575727D01*
X7179753Y-14699536D02*
X7189277Y-14709060D01*
X7189277Y-14709060D02*
X7179753Y-14718584D01*
X7179753Y-14718584D02*
X7170229Y-14709060D01*
X7170229Y-14709060D02*
X7179753Y-14699536D01*
X7179753Y-14699536D02*
X7179753Y-14718584D01*
X7360705Y-14585250D02*
X7360705Y-14718584D01*
X7313086Y-14509060D02*
X7265467Y-14651917D01*
X7265467Y-14651917D02*
X7389277Y-14651917D01*
X7503562Y-14518584D02*
X7522610Y-14518584D01*
X7522610Y-14518584D02*
X7541658Y-14528108D01*
X7541658Y-14528108D02*
X7551182Y-14537631D01*
X7551182Y-14537631D02*
X7560705Y-14556679D01*
X7560705Y-14556679D02*
X7570229Y-14594774D01*
X7570229Y-14594774D02*
X7570229Y-14642393D01*
X7570229Y-14642393D02*
X7560705Y-14680488D01*
X7560705Y-14680488D02*
X7551182Y-14699536D01*
X7551182Y-14699536D02*
X7541658Y-14709060D01*
X7541658Y-14709060D02*
X7522610Y-14718584D01*
X7522610Y-14718584D02*
X7503562Y-14718584D01*
X7503562Y-14718584D02*
X7484515Y-14709060D01*
X7484515Y-14709060D02*
X7474991Y-14699536D01*
X7474991Y-14699536D02*
X7465467Y-14680488D01*
X7465467Y-14680488D02*
X7455943Y-14642393D01*
X7455943Y-14642393D02*
X7455943Y-14594774D01*
X7455943Y-14594774D02*
X7465467Y-14556679D01*
X7465467Y-14556679D02*
X7474991Y-14537631D01*
X7474991Y-14537631D02*
X7484515Y-14528108D01*
X7484515Y-14528108D02*
X7503562Y-14518584D01*
X7694039Y-14518584D02*
X7713086Y-14518584D01*
X7713086Y-14518584D02*
X7732134Y-14528108D01*
X7732134Y-14528108D02*
X7741658Y-14537631D01*
X7741658Y-14537631D02*
X7751182Y-14556679D01*
X7751182Y-14556679D02*
X7760705Y-14594774D01*
X7760705Y-14594774D02*
X7760705Y-14642393D01*
X7760705Y-14642393D02*
X7751182Y-14680488D01*
X7751182Y-14680488D02*
X7741658Y-14699536D01*
X7741658Y-14699536D02*
X7732134Y-14709060D01*
X7732134Y-14709060D02*
X7713086Y-14718584D01*
X7713086Y-14718584D02*
X7694039Y-14718584D01*
X7694039Y-14718584D02*
X7674991Y-14709060D01*
X7674991Y-14709060D02*
X7665467Y-14699536D01*
X7665467Y-14699536D02*
X7655943Y-14680488D01*
X7655943Y-14680488D02*
X7646420Y-14642393D01*
X7646420Y-14642393D02*
X7646420Y-14594774D01*
X7646420Y-14594774D02*
X7655943Y-14556679D01*
X7655943Y-14556679D02*
X7665467Y-14537631D01*
X7665467Y-14537631D02*
X7674991Y-14528108D01*
X7674991Y-14528108D02*
X7694039Y-14518584D01*
X7846420Y-14718584D02*
X7846420Y-14585250D01*
X7846420Y-14604298D02*
X7855943Y-14594774D01*
X7855943Y-14594774D02*
X7874991Y-14585250D01*
X7874991Y-14585250D02*
X7903563Y-14585250D01*
X7903563Y-14585250D02*
X7922610Y-14594774D01*
X7922610Y-14594774D02*
X7932134Y-14613822D01*
X7932134Y-14613822D02*
X7932134Y-14718584D01*
X7932134Y-14613822D02*
X7941658Y-14594774D01*
X7941658Y-14594774D02*
X7960705Y-14585250D01*
X7960705Y-14585250D02*
X7989277Y-14585250D01*
X7989277Y-14585250D02*
X8008324Y-14594774D01*
X8008324Y-14594774D02*
X8017848Y-14613822D01*
X8017848Y-14613822D02*
X8017848Y-14718584D01*
X8113086Y-14718584D02*
X8113086Y-14585250D01*
X8113086Y-14604298D02*
X8122610Y-14594774D01*
X8122610Y-14594774D02*
X8141658Y-14585250D01*
X8141658Y-14585250D02*
X8170229Y-14585250D01*
X8170229Y-14585250D02*
X8189277Y-14594774D01*
X8189277Y-14594774D02*
X8198801Y-14613822D01*
X8198801Y-14613822D02*
X8198801Y-14718584D01*
X8198801Y-14613822D02*
X8208324Y-14594774D01*
X8208324Y-14594774D02*
X8227372Y-14585250D01*
X8227372Y-14585250D02*
X8255943Y-14585250D01*
X8255943Y-14585250D02*
X8274991Y-14594774D01*
X8274991Y-14594774D02*
X8284515Y-14613822D01*
X8284515Y-14613822D02*
X8284515Y-14718584D01*
X8674991Y-14509060D02*
X8503563Y-14766203D01*
X8932134Y-14518584D02*
X8951182Y-14518584D01*
X8951182Y-14518584D02*
X8970229Y-14528108D01*
X8970229Y-14528108D02*
X8979753Y-14537631D01*
X8979753Y-14537631D02*
X8989277Y-14556679D01*
X8989277Y-14556679D02*
X8998801Y-14594774D01*
X8998801Y-14594774D02*
X8998801Y-14642393D01*
X8998801Y-14642393D02*
X8989277Y-14680488D01*
X8989277Y-14680488D02*
X8979753Y-14699536D01*
X8979753Y-14699536D02*
X8970229Y-14709060D01*
X8970229Y-14709060D02*
X8951182Y-14718584D01*
X8951182Y-14718584D02*
X8932134Y-14718584D01*
X8932134Y-14718584D02*
X8913087Y-14709060D01*
X8913087Y-14709060D02*
X8903563Y-14699536D01*
X8903563Y-14699536D02*
X8894039Y-14680488D01*
X8894039Y-14680488D02*
X8884515Y-14642393D01*
X8884515Y-14642393D02*
X8884515Y-14594774D01*
X8884515Y-14594774D02*
X8894039Y-14556679D01*
X8894039Y-14556679D02*
X8903563Y-14537631D01*
X8903563Y-14537631D02*
X8913087Y-14528108D01*
X8913087Y-14528108D02*
X8932134Y-14518584D01*
X9084515Y-14699536D02*
X9094039Y-14709060D01*
X9094039Y-14709060D02*
X9084515Y-14718584D01*
X9084515Y-14718584D02*
X9074991Y-14709060D01*
X9074991Y-14709060D02*
X9084515Y-14699536D01*
X9084515Y-14699536D02*
X9084515Y-14718584D01*
X9217848Y-14518584D02*
X9236896Y-14518584D01*
X9236896Y-14518584D02*
X9255944Y-14528108D01*
X9255944Y-14528108D02*
X9265468Y-14537631D01*
X9265468Y-14537631D02*
X9274991Y-14556679D01*
X9274991Y-14556679D02*
X9284515Y-14594774D01*
X9284515Y-14594774D02*
X9284515Y-14642393D01*
X9284515Y-14642393D02*
X9274991Y-14680488D01*
X9274991Y-14680488D02*
X9265468Y-14699536D01*
X9265468Y-14699536D02*
X9255944Y-14709060D01*
X9255944Y-14709060D02*
X9236896Y-14718584D01*
X9236896Y-14718584D02*
X9217848Y-14718584D01*
X9217848Y-14718584D02*
X9198801Y-14709060D01*
X9198801Y-14709060D02*
X9189277Y-14699536D01*
X9189277Y-14699536D02*
X9179753Y-14680488D01*
X9179753Y-14680488D02*
X9170229Y-14642393D01*
X9170229Y-14642393D02*
X9170229Y-14594774D01*
X9170229Y-14594774D02*
X9179753Y-14556679D01*
X9179753Y-14556679D02*
X9189277Y-14537631D01*
X9189277Y-14537631D02*
X9198801Y-14528108D01*
X9198801Y-14528108D02*
X9217848Y-14518584D01*
X9465468Y-14518584D02*
X9370229Y-14518584D01*
X9370229Y-14518584D02*
X9360706Y-14613822D01*
X9360706Y-14613822D02*
X9370229Y-14604298D01*
X9370229Y-14604298D02*
X9389277Y-14594774D01*
X9389277Y-14594774D02*
X9436896Y-14594774D01*
X9436896Y-14594774D02*
X9455944Y-14604298D01*
X9455944Y-14604298D02*
X9465468Y-14613822D01*
X9465468Y-14613822D02*
X9474991Y-14632869D01*
X9474991Y-14632869D02*
X9474991Y-14680488D01*
X9474991Y-14680488D02*
X9465468Y-14699536D01*
X9465468Y-14699536D02*
X9455944Y-14709060D01*
X9455944Y-14709060D02*
X9436896Y-14718584D01*
X9436896Y-14718584D02*
X9389277Y-14718584D01*
X9389277Y-14718584D02*
X9370229Y-14709060D01*
X9370229Y-14709060D02*
X9360706Y-14699536D01*
X9655944Y-14518584D02*
X9560706Y-14518584D01*
X9560706Y-14518584D02*
X9551182Y-14613822D01*
X9551182Y-14613822D02*
X9560706Y-14604298D01*
X9560706Y-14604298D02*
X9579753Y-14594774D01*
X9579753Y-14594774D02*
X9627372Y-14594774D01*
X9627372Y-14594774D02*
X9646420Y-14604298D01*
X9646420Y-14604298D02*
X9655944Y-14613822D01*
X9655944Y-14613822D02*
X9665468Y-14632869D01*
X9665468Y-14632869D02*
X9665468Y-14680488D01*
X9665468Y-14680488D02*
X9655944Y-14699536D01*
X9655944Y-14699536D02*
X9646420Y-14709060D01*
X9646420Y-14709060D02*
X9627372Y-14718584D01*
X9627372Y-14718584D02*
X9579753Y-14718584D01*
X9579753Y-14718584D02*
X9560706Y-14709060D01*
X9560706Y-14709060D02*
X9551182Y-14699536D01*
X9855944Y-14718584D02*
X9741658Y-14718584D01*
X9798801Y-14718584D02*
X9798801Y-14518584D01*
X9798801Y-14518584D02*
X9779753Y-14547155D01*
X9779753Y-14547155D02*
X9760706Y-14566203D01*
X9760706Y-14566203D02*
X9741658Y-14575727D01*
X9932134Y-14518584D02*
X9932134Y-14556679D01*
X10008325Y-14518584D02*
X10008325Y-14556679D01*
X10303563Y-14794774D02*
X10294039Y-14785250D01*
X10294039Y-14785250D02*
X10274991Y-14756679D01*
X10274991Y-14756679D02*
X10265468Y-14737631D01*
X10265468Y-14737631D02*
X10255944Y-14709060D01*
X10255944Y-14709060D02*
X10246420Y-14661441D01*
X10246420Y-14661441D02*
X10246420Y-14623346D01*
X10246420Y-14623346D02*
X10255944Y-14575727D01*
X10255944Y-14575727D02*
X10265468Y-14547155D01*
X10265468Y-14547155D02*
X10274991Y-14528108D01*
X10274991Y-14528108D02*
X10294039Y-14499536D01*
X10294039Y-14499536D02*
X10303563Y-14490012D01*
X10465468Y-14518584D02*
X10427372Y-14518584D01*
X10427372Y-14518584D02*
X10408325Y-14528108D01*
X10408325Y-14528108D02*
X10398801Y-14537631D01*
X10398801Y-14537631D02*
X10379753Y-14566203D01*
X10379753Y-14566203D02*
X10370230Y-14604298D01*
X10370230Y-14604298D02*
X10370230Y-14680488D01*
X10370230Y-14680488D02*
X10379753Y-14699536D01*
X10379753Y-14699536D02*
X10389277Y-14709060D01*
X10389277Y-14709060D02*
X10408325Y-14718584D01*
X10408325Y-14718584D02*
X10446420Y-14718584D01*
X10446420Y-14718584D02*
X10465468Y-14709060D01*
X10465468Y-14709060D02*
X10474991Y-14699536D01*
X10474991Y-14699536D02*
X10484515Y-14680488D01*
X10484515Y-14680488D02*
X10484515Y-14632869D01*
X10484515Y-14632869D02*
X10474991Y-14613822D01*
X10474991Y-14613822D02*
X10465468Y-14604298D01*
X10465468Y-14604298D02*
X10446420Y-14594774D01*
X10446420Y-14594774D02*
X10408325Y-14594774D01*
X10408325Y-14594774D02*
X10389277Y-14604298D01*
X10389277Y-14604298D02*
X10379753Y-14613822D01*
X10379753Y-14613822D02*
X10370230Y-14632869D01*
X10722611Y-14718584D02*
X10722611Y-14518584D01*
X10808325Y-14718584D02*
X10808325Y-14613822D01*
X10808325Y-14613822D02*
X10798801Y-14594774D01*
X10798801Y-14594774D02*
X10779753Y-14585250D01*
X10779753Y-14585250D02*
X10751182Y-14585250D01*
X10751182Y-14585250D02*
X10732134Y-14594774D01*
X10732134Y-14594774D02*
X10722611Y-14604298D01*
X10932134Y-14718584D02*
X10913087Y-14709060D01*
X10913087Y-14709060D02*
X10903563Y-14699536D01*
X10903563Y-14699536D02*
X10894039Y-14680488D01*
X10894039Y-14680488D02*
X10894039Y-14623346D01*
X10894039Y-14623346D02*
X10903563Y-14604298D01*
X10903563Y-14604298D02*
X10913087Y-14594774D01*
X10913087Y-14594774D02*
X10932134Y-14585250D01*
X10932134Y-14585250D02*
X10960706Y-14585250D01*
X10960706Y-14585250D02*
X10979753Y-14594774D01*
X10979753Y-14594774D02*
X10989277Y-14604298D01*
X10989277Y-14604298D02*
X10998801Y-14623346D01*
X10998801Y-14623346D02*
X10998801Y-14680488D01*
X10998801Y-14680488D02*
X10989277Y-14699536D01*
X10989277Y-14699536D02*
X10979753Y-14709060D01*
X10979753Y-14709060D02*
X10960706Y-14718584D01*
X10960706Y-14718584D02*
X10932134Y-14718584D01*
X11113087Y-14718584D02*
X11094039Y-14709060D01*
X11094039Y-14709060D02*
X11084515Y-14690012D01*
X11084515Y-14690012D02*
X11084515Y-14518584D01*
X11265468Y-14709060D02*
X11246420Y-14718584D01*
X11246420Y-14718584D02*
X11208325Y-14718584D01*
X11208325Y-14718584D02*
X11189277Y-14709060D01*
X11189277Y-14709060D02*
X11179753Y-14690012D01*
X11179753Y-14690012D02*
X11179753Y-14613822D01*
X11179753Y-14613822D02*
X11189277Y-14594774D01*
X11189277Y-14594774D02*
X11208325Y-14585250D01*
X11208325Y-14585250D02*
X11246420Y-14585250D01*
X11246420Y-14585250D02*
X11265468Y-14594774D01*
X11265468Y-14594774D02*
X11274991Y-14613822D01*
X11274991Y-14613822D02*
X11274991Y-14632869D01*
X11274991Y-14632869D02*
X11179753Y-14651917D01*
X11351182Y-14709060D02*
X11370230Y-14718584D01*
X11370230Y-14718584D02*
X11408325Y-14718584D01*
X11408325Y-14718584D02*
X11427372Y-14709060D01*
X11427372Y-14709060D02*
X11436896Y-14690012D01*
X11436896Y-14690012D02*
X11436896Y-14680488D01*
X11436896Y-14680488D02*
X11427372Y-14661441D01*
X11427372Y-14661441D02*
X11408325Y-14651917D01*
X11408325Y-14651917D02*
X11379753Y-14651917D01*
X11379753Y-14651917D02*
X11360706Y-14642393D01*
X11360706Y-14642393D02*
X11351182Y-14623346D01*
X11351182Y-14623346D02*
X11351182Y-14613822D01*
X11351182Y-14613822D02*
X11360706Y-14594774D01*
X11360706Y-14594774D02*
X11379753Y-14585250D01*
X11379753Y-14585250D02*
X11408325Y-14585250D01*
X11408325Y-14585250D02*
X11427372Y-14594774D01*
X11503563Y-14794774D02*
X11513087Y-14785250D01*
X11513087Y-14785250D02*
X11532134Y-14756679D01*
X11532134Y-14756679D02*
X11541658Y-14737631D01*
X11541658Y-14737631D02*
X11551182Y-14709060D01*
X11551182Y-14709060D02*
X11560706Y-14661441D01*
X11560706Y-14661441D02*
X11560706Y-14623346D01*
X11560706Y-14623346D02*
X11551182Y-14575727D01*
X11551182Y-14575727D02*
X11541658Y-14547155D01*
X11541658Y-14547155D02*
X11532134Y-14528108D01*
X11532134Y-14528108D02*
X11513087Y-14499536D01*
X11513087Y-14499536D02*
X11503563Y-14490012D01*
D14*
X6558500Y-14806100D02*
X6728500Y-14976100D01*
X6728500Y-14806100D02*
X6558500Y-14976100D01*
X6728500Y-14891100D02*
G75*
G02*
X6558500Y-14891100I-85000J0D01*
G01*
X6558500Y-14891100D02*
G75*
G02*
X6728500Y-14891100I85000J0D01*
G01*
D11*
X7094039Y-14982584D02*
X6979753Y-14982584D01*
X7036896Y-14982584D02*
X7036896Y-14782584D01*
X7036896Y-14782584D02*
X7017848Y-14811155D01*
X7017848Y-14811155D02*
X6998801Y-14830203D01*
X6998801Y-14830203D02*
X6979753Y-14839727D01*
X7179753Y-14963536D02*
X7189277Y-14973060D01*
X7189277Y-14973060D02*
X7179753Y-14982584D01*
X7179753Y-14982584D02*
X7170229Y-14973060D01*
X7170229Y-14973060D02*
X7179753Y-14963536D01*
X7179753Y-14963536D02*
X7179753Y-14982584D01*
X7255943Y-14782584D02*
X7389277Y-14782584D01*
X7389277Y-14782584D02*
X7303562Y-14982584D01*
X7503562Y-14782584D02*
X7522610Y-14782584D01*
X7522610Y-14782584D02*
X7541658Y-14792108D01*
X7541658Y-14792108D02*
X7551182Y-14801631D01*
X7551182Y-14801631D02*
X7560705Y-14820679D01*
X7560705Y-14820679D02*
X7570229Y-14858774D01*
X7570229Y-14858774D02*
X7570229Y-14906393D01*
X7570229Y-14906393D02*
X7560705Y-14944488D01*
X7560705Y-14944488D02*
X7551182Y-14963536D01*
X7551182Y-14963536D02*
X7541658Y-14973060D01*
X7541658Y-14973060D02*
X7522610Y-14982584D01*
X7522610Y-14982584D02*
X7503562Y-14982584D01*
X7503562Y-14982584D02*
X7484515Y-14973060D01*
X7484515Y-14973060D02*
X7474991Y-14963536D01*
X7474991Y-14963536D02*
X7465467Y-14944488D01*
X7465467Y-14944488D02*
X7455943Y-14906393D01*
X7455943Y-14906393D02*
X7455943Y-14858774D01*
X7455943Y-14858774D02*
X7465467Y-14820679D01*
X7465467Y-14820679D02*
X7474991Y-14801631D01*
X7474991Y-14801631D02*
X7484515Y-14792108D01*
X7484515Y-14792108D02*
X7503562Y-14782584D01*
X7694039Y-14782584D02*
X7713086Y-14782584D01*
X7713086Y-14782584D02*
X7732134Y-14792108D01*
X7732134Y-14792108D02*
X7741658Y-14801631D01*
X7741658Y-14801631D02*
X7751182Y-14820679D01*
X7751182Y-14820679D02*
X7760705Y-14858774D01*
X7760705Y-14858774D02*
X7760705Y-14906393D01*
X7760705Y-14906393D02*
X7751182Y-14944488D01*
X7751182Y-14944488D02*
X7741658Y-14963536D01*
X7741658Y-14963536D02*
X7732134Y-14973060D01*
X7732134Y-14973060D02*
X7713086Y-14982584D01*
X7713086Y-14982584D02*
X7694039Y-14982584D01*
X7694039Y-14982584D02*
X7674991Y-14973060D01*
X7674991Y-14973060D02*
X7665467Y-14963536D01*
X7665467Y-14963536D02*
X7655943Y-14944488D01*
X7655943Y-14944488D02*
X7646420Y-14906393D01*
X7646420Y-14906393D02*
X7646420Y-14858774D01*
X7646420Y-14858774D02*
X7655943Y-14820679D01*
X7655943Y-14820679D02*
X7665467Y-14801631D01*
X7665467Y-14801631D02*
X7674991Y-14792108D01*
X7674991Y-14792108D02*
X7694039Y-14782584D01*
X7846420Y-14982584D02*
X7846420Y-14849250D01*
X7846420Y-14868298D02*
X7855943Y-14858774D01*
X7855943Y-14858774D02*
X7874991Y-14849250D01*
X7874991Y-14849250D02*
X7903563Y-14849250D01*
X7903563Y-14849250D02*
X7922610Y-14858774D01*
X7922610Y-14858774D02*
X7932134Y-14877822D01*
X7932134Y-14877822D02*
X7932134Y-14982584D01*
X7932134Y-14877822D02*
X7941658Y-14858774D01*
X7941658Y-14858774D02*
X7960705Y-14849250D01*
X7960705Y-14849250D02*
X7989277Y-14849250D01*
X7989277Y-14849250D02*
X8008324Y-14858774D01*
X8008324Y-14858774D02*
X8017848Y-14877822D01*
X8017848Y-14877822D02*
X8017848Y-14982584D01*
X8113086Y-14982584D02*
X8113086Y-14849250D01*
X8113086Y-14868298D02*
X8122610Y-14858774D01*
X8122610Y-14858774D02*
X8141658Y-14849250D01*
X8141658Y-14849250D02*
X8170229Y-14849250D01*
X8170229Y-14849250D02*
X8189277Y-14858774D01*
X8189277Y-14858774D02*
X8198801Y-14877822D01*
X8198801Y-14877822D02*
X8198801Y-14982584D01*
X8198801Y-14877822D02*
X8208324Y-14858774D01*
X8208324Y-14858774D02*
X8227372Y-14849250D01*
X8227372Y-14849250D02*
X8255943Y-14849250D01*
X8255943Y-14849250D02*
X8274991Y-14858774D01*
X8274991Y-14858774D02*
X8284515Y-14877822D01*
X8284515Y-14877822D02*
X8284515Y-14982584D01*
X8674991Y-14773060D02*
X8503563Y-15030203D01*
X8932134Y-14782584D02*
X8951182Y-14782584D01*
X8951182Y-14782584D02*
X8970229Y-14792108D01*
X8970229Y-14792108D02*
X8979753Y-14801631D01*
X8979753Y-14801631D02*
X8989277Y-14820679D01*
X8989277Y-14820679D02*
X8998801Y-14858774D01*
X8998801Y-14858774D02*
X8998801Y-14906393D01*
X8998801Y-14906393D02*
X8989277Y-14944488D01*
X8989277Y-14944488D02*
X8979753Y-14963536D01*
X8979753Y-14963536D02*
X8970229Y-14973060D01*
X8970229Y-14973060D02*
X8951182Y-14982584D01*
X8951182Y-14982584D02*
X8932134Y-14982584D01*
X8932134Y-14982584D02*
X8913087Y-14973060D01*
X8913087Y-14973060D02*
X8903563Y-14963536D01*
X8903563Y-14963536D02*
X8894039Y-14944488D01*
X8894039Y-14944488D02*
X8884515Y-14906393D01*
X8884515Y-14906393D02*
X8884515Y-14858774D01*
X8884515Y-14858774D02*
X8894039Y-14820679D01*
X8894039Y-14820679D02*
X8903563Y-14801631D01*
X8903563Y-14801631D02*
X8913087Y-14792108D01*
X8913087Y-14792108D02*
X8932134Y-14782584D01*
X9084515Y-14963536D02*
X9094039Y-14973060D01*
X9094039Y-14973060D02*
X9084515Y-14982584D01*
X9084515Y-14982584D02*
X9074991Y-14973060D01*
X9074991Y-14973060D02*
X9084515Y-14963536D01*
X9084515Y-14963536D02*
X9084515Y-14982584D01*
X9217848Y-14782584D02*
X9236896Y-14782584D01*
X9236896Y-14782584D02*
X9255944Y-14792108D01*
X9255944Y-14792108D02*
X9265468Y-14801631D01*
X9265468Y-14801631D02*
X9274991Y-14820679D01*
X9274991Y-14820679D02*
X9284515Y-14858774D01*
X9284515Y-14858774D02*
X9284515Y-14906393D01*
X9284515Y-14906393D02*
X9274991Y-14944488D01*
X9274991Y-14944488D02*
X9265468Y-14963536D01*
X9265468Y-14963536D02*
X9255944Y-14973060D01*
X9255944Y-14973060D02*
X9236896Y-14982584D01*
X9236896Y-14982584D02*
X9217848Y-14982584D01*
X9217848Y-14982584D02*
X9198801Y-14973060D01*
X9198801Y-14973060D02*
X9189277Y-14963536D01*
X9189277Y-14963536D02*
X9179753Y-14944488D01*
X9179753Y-14944488D02*
X9170229Y-14906393D01*
X9170229Y-14906393D02*
X9170229Y-14858774D01*
X9170229Y-14858774D02*
X9179753Y-14820679D01*
X9179753Y-14820679D02*
X9189277Y-14801631D01*
X9189277Y-14801631D02*
X9198801Y-14792108D01*
X9198801Y-14792108D02*
X9217848Y-14782584D01*
X9455944Y-14782584D02*
X9417848Y-14782584D01*
X9417848Y-14782584D02*
X9398801Y-14792108D01*
X9398801Y-14792108D02*
X9389277Y-14801631D01*
X9389277Y-14801631D02*
X9370229Y-14830203D01*
X9370229Y-14830203D02*
X9360706Y-14868298D01*
X9360706Y-14868298D02*
X9360706Y-14944488D01*
X9360706Y-14944488D02*
X9370229Y-14963536D01*
X9370229Y-14963536D02*
X9379753Y-14973060D01*
X9379753Y-14973060D02*
X9398801Y-14982584D01*
X9398801Y-14982584D02*
X9436896Y-14982584D01*
X9436896Y-14982584D02*
X9455944Y-14973060D01*
X9455944Y-14973060D02*
X9465468Y-14963536D01*
X9465468Y-14963536D02*
X9474991Y-14944488D01*
X9474991Y-14944488D02*
X9474991Y-14896869D01*
X9474991Y-14896869D02*
X9465468Y-14877822D01*
X9465468Y-14877822D02*
X9455944Y-14868298D01*
X9455944Y-14868298D02*
X9436896Y-14858774D01*
X9436896Y-14858774D02*
X9398801Y-14858774D01*
X9398801Y-14858774D02*
X9379753Y-14868298D01*
X9379753Y-14868298D02*
X9370229Y-14877822D01*
X9370229Y-14877822D02*
X9360706Y-14896869D01*
X9646420Y-14782584D02*
X9608325Y-14782584D01*
X9608325Y-14782584D02*
X9589277Y-14792108D01*
X9589277Y-14792108D02*
X9579753Y-14801631D01*
X9579753Y-14801631D02*
X9560706Y-14830203D01*
X9560706Y-14830203D02*
X9551182Y-14868298D01*
X9551182Y-14868298D02*
X9551182Y-14944488D01*
X9551182Y-14944488D02*
X9560706Y-14963536D01*
X9560706Y-14963536D02*
X9570229Y-14973060D01*
X9570229Y-14973060D02*
X9589277Y-14982584D01*
X9589277Y-14982584D02*
X9627372Y-14982584D01*
X9627372Y-14982584D02*
X9646420Y-14973060D01*
X9646420Y-14973060D02*
X9655944Y-14963536D01*
X9655944Y-14963536D02*
X9665468Y-14944488D01*
X9665468Y-14944488D02*
X9665468Y-14896869D01*
X9665468Y-14896869D02*
X9655944Y-14877822D01*
X9655944Y-14877822D02*
X9646420Y-14868298D01*
X9646420Y-14868298D02*
X9627372Y-14858774D01*
X9627372Y-14858774D02*
X9589277Y-14858774D01*
X9589277Y-14858774D02*
X9570229Y-14868298D01*
X9570229Y-14868298D02*
X9560706Y-14877822D01*
X9560706Y-14877822D02*
X9551182Y-14896869D01*
X9760706Y-14982584D02*
X9798801Y-14982584D01*
X9798801Y-14982584D02*
X9817849Y-14973060D01*
X9817849Y-14973060D02*
X9827372Y-14963536D01*
X9827372Y-14963536D02*
X9846420Y-14934965D01*
X9846420Y-14934965D02*
X9855944Y-14896869D01*
X9855944Y-14896869D02*
X9855944Y-14820679D01*
X9855944Y-14820679D02*
X9846420Y-14801631D01*
X9846420Y-14801631D02*
X9836896Y-14792108D01*
X9836896Y-14792108D02*
X9817849Y-14782584D01*
X9817849Y-14782584D02*
X9779753Y-14782584D01*
X9779753Y-14782584D02*
X9760706Y-14792108D01*
X9760706Y-14792108D02*
X9751182Y-14801631D01*
X9751182Y-14801631D02*
X9741658Y-14820679D01*
X9741658Y-14820679D02*
X9741658Y-14868298D01*
X9741658Y-14868298D02*
X9751182Y-14887346D01*
X9751182Y-14887346D02*
X9760706Y-14896869D01*
X9760706Y-14896869D02*
X9779753Y-14906393D01*
X9779753Y-14906393D02*
X9817849Y-14906393D01*
X9817849Y-14906393D02*
X9836896Y-14896869D01*
X9836896Y-14896869D02*
X9846420Y-14887346D01*
X9846420Y-14887346D02*
X9855944Y-14868298D01*
X9932134Y-14782584D02*
X9932134Y-14820679D01*
X10008325Y-14782584D02*
X10008325Y-14820679D01*
X10303563Y-15058774D02*
X10294039Y-15049250D01*
X10294039Y-15049250D02*
X10274991Y-15020679D01*
X10274991Y-15020679D02*
X10265468Y-15001631D01*
X10265468Y-15001631D02*
X10255944Y-14973060D01*
X10255944Y-14973060D02*
X10246420Y-14925441D01*
X10246420Y-14925441D02*
X10246420Y-14887346D01*
X10246420Y-14887346D02*
X10255944Y-14839727D01*
X10255944Y-14839727D02*
X10265468Y-14811155D01*
X10265468Y-14811155D02*
X10274991Y-14792108D01*
X10274991Y-14792108D02*
X10294039Y-14763536D01*
X10294039Y-14763536D02*
X10303563Y-14754012D01*
X10465468Y-14782584D02*
X10427372Y-14782584D01*
X10427372Y-14782584D02*
X10408325Y-14792108D01*
X10408325Y-14792108D02*
X10398801Y-14801631D01*
X10398801Y-14801631D02*
X10379753Y-14830203D01*
X10379753Y-14830203D02*
X10370230Y-14868298D01*
X10370230Y-14868298D02*
X10370230Y-14944488D01*
X10370230Y-14944488D02*
X10379753Y-14963536D01*
X10379753Y-14963536D02*
X10389277Y-14973060D01*
X10389277Y-14973060D02*
X10408325Y-14982584D01*
X10408325Y-14982584D02*
X10446420Y-14982584D01*
X10446420Y-14982584D02*
X10465468Y-14973060D01*
X10465468Y-14973060D02*
X10474991Y-14963536D01*
X10474991Y-14963536D02*
X10484515Y-14944488D01*
X10484515Y-14944488D02*
X10484515Y-14896869D01*
X10484515Y-14896869D02*
X10474991Y-14877822D01*
X10474991Y-14877822D02*
X10465468Y-14868298D01*
X10465468Y-14868298D02*
X10446420Y-14858774D01*
X10446420Y-14858774D02*
X10408325Y-14858774D01*
X10408325Y-14858774D02*
X10389277Y-14868298D01*
X10389277Y-14868298D02*
X10379753Y-14877822D01*
X10379753Y-14877822D02*
X10370230Y-14896869D01*
X10722611Y-14982584D02*
X10722611Y-14782584D01*
X10808325Y-14982584D02*
X10808325Y-14877822D01*
X10808325Y-14877822D02*
X10798801Y-14858774D01*
X10798801Y-14858774D02*
X10779753Y-14849250D01*
X10779753Y-14849250D02*
X10751182Y-14849250D01*
X10751182Y-14849250D02*
X10732134Y-14858774D01*
X10732134Y-14858774D02*
X10722611Y-14868298D01*
X10932134Y-14982584D02*
X10913087Y-14973060D01*
X10913087Y-14973060D02*
X10903563Y-14963536D01*
X10903563Y-14963536D02*
X10894039Y-14944488D01*
X10894039Y-14944488D02*
X10894039Y-14887346D01*
X10894039Y-14887346D02*
X10903563Y-14868298D01*
X10903563Y-14868298D02*
X10913087Y-14858774D01*
X10913087Y-14858774D02*
X10932134Y-14849250D01*
X10932134Y-14849250D02*
X10960706Y-14849250D01*
X10960706Y-14849250D02*
X10979753Y-14858774D01*
X10979753Y-14858774D02*
X10989277Y-14868298D01*
X10989277Y-14868298D02*
X10998801Y-14887346D01*
X10998801Y-14887346D02*
X10998801Y-14944488D01*
X10998801Y-14944488D02*
X10989277Y-14963536D01*
X10989277Y-14963536D02*
X10979753Y-14973060D01*
X10979753Y-14973060D02*
X10960706Y-14982584D01*
X10960706Y-14982584D02*
X10932134Y-14982584D01*
X11113087Y-14982584D02*
X11094039Y-14973060D01*
X11094039Y-14973060D02*
X11084515Y-14954012D01*
X11084515Y-14954012D02*
X11084515Y-14782584D01*
X11265468Y-14973060D02*
X11246420Y-14982584D01*
X11246420Y-14982584D02*
X11208325Y-14982584D01*
X11208325Y-14982584D02*
X11189277Y-14973060D01*
X11189277Y-14973060D02*
X11179753Y-14954012D01*
X11179753Y-14954012D02*
X11179753Y-14877822D01*
X11179753Y-14877822D02*
X11189277Y-14858774D01*
X11189277Y-14858774D02*
X11208325Y-14849250D01*
X11208325Y-14849250D02*
X11246420Y-14849250D01*
X11246420Y-14849250D02*
X11265468Y-14858774D01*
X11265468Y-14858774D02*
X11274991Y-14877822D01*
X11274991Y-14877822D02*
X11274991Y-14896869D01*
X11274991Y-14896869D02*
X11179753Y-14915917D01*
X11351182Y-14973060D02*
X11370230Y-14982584D01*
X11370230Y-14982584D02*
X11408325Y-14982584D01*
X11408325Y-14982584D02*
X11427372Y-14973060D01*
X11427372Y-14973060D02*
X11436896Y-14954012D01*
X11436896Y-14954012D02*
X11436896Y-14944488D01*
X11436896Y-14944488D02*
X11427372Y-14925441D01*
X11427372Y-14925441D02*
X11408325Y-14915917D01*
X11408325Y-14915917D02*
X11379753Y-14915917D01*
X11379753Y-14915917D02*
X11360706Y-14906393D01*
X11360706Y-14906393D02*
X11351182Y-14887346D01*
X11351182Y-14887346D02*
X11351182Y-14877822D01*
X11351182Y-14877822D02*
X11360706Y-14858774D01*
X11360706Y-14858774D02*
X11379753Y-14849250D01*
X11379753Y-14849250D02*
X11408325Y-14849250D01*
X11408325Y-14849250D02*
X11427372Y-14858774D01*
X11503563Y-15058774D02*
X11513087Y-15049250D01*
X11513087Y-15049250D02*
X11532134Y-15020679D01*
X11532134Y-15020679D02*
X11541658Y-15001631D01*
X11541658Y-15001631D02*
X11551182Y-14973060D01*
X11551182Y-14973060D02*
X11560706Y-14925441D01*
X11560706Y-14925441D02*
X11560706Y-14887346D01*
X11560706Y-14887346D02*
X11551182Y-14839727D01*
X11551182Y-14839727D02*
X11541658Y-14811155D01*
X11541658Y-14811155D02*
X11532134Y-14792108D01*
X11532134Y-14792108D02*
X11513087Y-14763536D01*
X11513087Y-14763536D02*
X11503563Y-14754012D01*
X6528500Y-15081100D02*
X6728500Y-15281100D01*
X6728500Y-15081100D02*
X6528500Y-15281100D01*
X6628500Y-15081100D02*
X6628500Y-15281100D01*
X6528500Y-15181100D02*
X6728500Y-15181100D01*
X6979753Y-15091631D02*
X6989277Y-15082108D01*
X6989277Y-15082108D02*
X7008324Y-15072584D01*
X7008324Y-15072584D02*
X7055943Y-15072584D01*
X7055943Y-15072584D02*
X7074991Y-15082108D01*
X7074991Y-15082108D02*
X7084515Y-15091631D01*
X7084515Y-15091631D02*
X7094039Y-15110679D01*
X7094039Y-15110679D02*
X7094039Y-15129727D01*
X7094039Y-15129727D02*
X7084515Y-15158298D01*
X7084515Y-15158298D02*
X6970229Y-15272584D01*
X6970229Y-15272584D02*
X7094039Y-15272584D01*
X7179753Y-15253536D02*
X7189277Y-15263060D01*
X7189277Y-15263060D02*
X7179753Y-15272584D01*
X7179753Y-15272584D02*
X7170229Y-15263060D01*
X7170229Y-15263060D02*
X7179753Y-15253536D01*
X7179753Y-15253536D02*
X7179753Y-15272584D01*
X7255943Y-15072584D02*
X7379753Y-15072584D01*
X7379753Y-15072584D02*
X7313086Y-15148774D01*
X7313086Y-15148774D02*
X7341658Y-15148774D01*
X7341658Y-15148774D02*
X7360705Y-15158298D01*
X7360705Y-15158298D02*
X7370229Y-15167822D01*
X7370229Y-15167822D02*
X7379753Y-15186869D01*
X7379753Y-15186869D02*
X7379753Y-15234488D01*
X7379753Y-15234488D02*
X7370229Y-15253536D01*
X7370229Y-15253536D02*
X7360705Y-15263060D01*
X7360705Y-15263060D02*
X7341658Y-15272584D01*
X7341658Y-15272584D02*
X7284515Y-15272584D01*
X7284515Y-15272584D02*
X7265467Y-15263060D01*
X7265467Y-15263060D02*
X7255943Y-15253536D01*
X7503562Y-15072584D02*
X7522610Y-15072584D01*
X7522610Y-15072584D02*
X7541658Y-15082108D01*
X7541658Y-15082108D02*
X7551182Y-15091631D01*
X7551182Y-15091631D02*
X7560705Y-15110679D01*
X7560705Y-15110679D02*
X7570229Y-15148774D01*
X7570229Y-15148774D02*
X7570229Y-15196393D01*
X7570229Y-15196393D02*
X7560705Y-15234488D01*
X7560705Y-15234488D02*
X7551182Y-15253536D01*
X7551182Y-15253536D02*
X7541658Y-15263060D01*
X7541658Y-15263060D02*
X7522610Y-15272584D01*
X7522610Y-15272584D02*
X7503562Y-15272584D01*
X7503562Y-15272584D02*
X7484515Y-15263060D01*
X7484515Y-15263060D02*
X7474991Y-15253536D01*
X7474991Y-15253536D02*
X7465467Y-15234488D01*
X7465467Y-15234488D02*
X7455943Y-15196393D01*
X7455943Y-15196393D02*
X7455943Y-15148774D01*
X7455943Y-15148774D02*
X7465467Y-15110679D01*
X7465467Y-15110679D02*
X7474991Y-15091631D01*
X7474991Y-15091631D02*
X7484515Y-15082108D01*
X7484515Y-15082108D02*
X7503562Y-15072584D01*
X7694039Y-15072584D02*
X7713086Y-15072584D01*
X7713086Y-15072584D02*
X7732134Y-15082108D01*
X7732134Y-15082108D02*
X7741658Y-15091631D01*
X7741658Y-15091631D02*
X7751182Y-15110679D01*
X7751182Y-15110679D02*
X7760705Y-15148774D01*
X7760705Y-15148774D02*
X7760705Y-15196393D01*
X7760705Y-15196393D02*
X7751182Y-15234488D01*
X7751182Y-15234488D02*
X7741658Y-15253536D01*
X7741658Y-15253536D02*
X7732134Y-15263060D01*
X7732134Y-15263060D02*
X7713086Y-15272584D01*
X7713086Y-15272584D02*
X7694039Y-15272584D01*
X7694039Y-15272584D02*
X7674991Y-15263060D01*
X7674991Y-15263060D02*
X7665467Y-15253536D01*
X7665467Y-15253536D02*
X7655943Y-15234488D01*
X7655943Y-15234488D02*
X7646420Y-15196393D01*
X7646420Y-15196393D02*
X7646420Y-15148774D01*
X7646420Y-15148774D02*
X7655943Y-15110679D01*
X7655943Y-15110679D02*
X7665467Y-15091631D01*
X7665467Y-15091631D02*
X7674991Y-15082108D01*
X7674991Y-15082108D02*
X7694039Y-15072584D01*
X7846420Y-15272584D02*
X7846420Y-15139250D01*
X7846420Y-15158298D02*
X7855943Y-15148774D01*
X7855943Y-15148774D02*
X7874991Y-15139250D01*
X7874991Y-15139250D02*
X7903563Y-15139250D01*
X7903563Y-15139250D02*
X7922610Y-15148774D01*
X7922610Y-15148774D02*
X7932134Y-15167822D01*
X7932134Y-15167822D02*
X7932134Y-15272584D01*
X7932134Y-15167822D02*
X7941658Y-15148774D01*
X7941658Y-15148774D02*
X7960705Y-15139250D01*
X7960705Y-15139250D02*
X7989277Y-15139250D01*
X7989277Y-15139250D02*
X8008324Y-15148774D01*
X8008324Y-15148774D02*
X8017848Y-15167822D01*
X8017848Y-15167822D02*
X8017848Y-15272584D01*
X8113086Y-15272584D02*
X8113086Y-15139250D01*
X8113086Y-15158298D02*
X8122610Y-15148774D01*
X8122610Y-15148774D02*
X8141658Y-15139250D01*
X8141658Y-15139250D02*
X8170229Y-15139250D01*
X8170229Y-15139250D02*
X8189277Y-15148774D01*
X8189277Y-15148774D02*
X8198801Y-15167822D01*
X8198801Y-15167822D02*
X8198801Y-15272584D01*
X8198801Y-15167822D02*
X8208324Y-15148774D01*
X8208324Y-15148774D02*
X8227372Y-15139250D01*
X8227372Y-15139250D02*
X8255943Y-15139250D01*
X8255943Y-15139250D02*
X8274991Y-15148774D01*
X8274991Y-15148774D02*
X8284515Y-15167822D01*
X8284515Y-15167822D02*
X8284515Y-15272584D01*
X8674991Y-15063060D02*
X8503563Y-15320203D01*
X8932134Y-15072584D02*
X8951182Y-15072584D01*
X8951182Y-15072584D02*
X8970229Y-15082108D01*
X8970229Y-15082108D02*
X8979753Y-15091631D01*
X8979753Y-15091631D02*
X8989277Y-15110679D01*
X8989277Y-15110679D02*
X8998801Y-15148774D01*
X8998801Y-15148774D02*
X8998801Y-15196393D01*
X8998801Y-15196393D02*
X8989277Y-15234488D01*
X8989277Y-15234488D02*
X8979753Y-15253536D01*
X8979753Y-15253536D02*
X8970229Y-15263060D01*
X8970229Y-15263060D02*
X8951182Y-15272584D01*
X8951182Y-15272584D02*
X8932134Y-15272584D01*
X8932134Y-15272584D02*
X8913087Y-15263060D01*
X8913087Y-15263060D02*
X8903563Y-15253536D01*
X8903563Y-15253536D02*
X8894039Y-15234488D01*
X8894039Y-15234488D02*
X8884515Y-15196393D01*
X8884515Y-15196393D02*
X8884515Y-15148774D01*
X8884515Y-15148774D02*
X8894039Y-15110679D01*
X8894039Y-15110679D02*
X8903563Y-15091631D01*
X8903563Y-15091631D02*
X8913087Y-15082108D01*
X8913087Y-15082108D02*
X8932134Y-15072584D01*
X9084515Y-15253536D02*
X9094039Y-15263060D01*
X9094039Y-15263060D02*
X9084515Y-15272584D01*
X9084515Y-15272584D02*
X9074991Y-15263060D01*
X9074991Y-15263060D02*
X9084515Y-15253536D01*
X9084515Y-15253536D02*
X9084515Y-15272584D01*
X9217848Y-15072584D02*
X9236896Y-15072584D01*
X9236896Y-15072584D02*
X9255944Y-15082108D01*
X9255944Y-15082108D02*
X9265468Y-15091631D01*
X9265468Y-15091631D02*
X9274991Y-15110679D01*
X9274991Y-15110679D02*
X9284515Y-15148774D01*
X9284515Y-15148774D02*
X9284515Y-15196393D01*
X9284515Y-15196393D02*
X9274991Y-15234488D01*
X9274991Y-15234488D02*
X9265468Y-15253536D01*
X9265468Y-15253536D02*
X9255944Y-15263060D01*
X9255944Y-15263060D02*
X9236896Y-15272584D01*
X9236896Y-15272584D02*
X9217848Y-15272584D01*
X9217848Y-15272584D02*
X9198801Y-15263060D01*
X9198801Y-15263060D02*
X9189277Y-15253536D01*
X9189277Y-15253536D02*
X9179753Y-15234488D01*
X9179753Y-15234488D02*
X9170229Y-15196393D01*
X9170229Y-15196393D02*
X9170229Y-15148774D01*
X9170229Y-15148774D02*
X9179753Y-15110679D01*
X9179753Y-15110679D02*
X9189277Y-15091631D01*
X9189277Y-15091631D02*
X9198801Y-15082108D01*
X9198801Y-15082108D02*
X9217848Y-15072584D01*
X9379753Y-15272584D02*
X9417848Y-15272584D01*
X9417848Y-15272584D02*
X9436896Y-15263060D01*
X9436896Y-15263060D02*
X9446420Y-15253536D01*
X9446420Y-15253536D02*
X9465468Y-15224965D01*
X9465468Y-15224965D02*
X9474991Y-15186869D01*
X9474991Y-15186869D02*
X9474991Y-15110679D01*
X9474991Y-15110679D02*
X9465468Y-15091631D01*
X9465468Y-15091631D02*
X9455944Y-15082108D01*
X9455944Y-15082108D02*
X9436896Y-15072584D01*
X9436896Y-15072584D02*
X9398801Y-15072584D01*
X9398801Y-15072584D02*
X9379753Y-15082108D01*
X9379753Y-15082108D02*
X9370229Y-15091631D01*
X9370229Y-15091631D02*
X9360706Y-15110679D01*
X9360706Y-15110679D02*
X9360706Y-15158298D01*
X9360706Y-15158298D02*
X9370229Y-15177346D01*
X9370229Y-15177346D02*
X9379753Y-15186869D01*
X9379753Y-15186869D02*
X9398801Y-15196393D01*
X9398801Y-15196393D02*
X9436896Y-15196393D01*
X9436896Y-15196393D02*
X9455944Y-15186869D01*
X9455944Y-15186869D02*
X9465468Y-15177346D01*
X9465468Y-15177346D02*
X9474991Y-15158298D01*
X9598801Y-15072584D02*
X9617849Y-15072584D01*
X9617849Y-15072584D02*
X9636896Y-15082108D01*
X9636896Y-15082108D02*
X9646420Y-15091631D01*
X9646420Y-15091631D02*
X9655944Y-15110679D01*
X9655944Y-15110679D02*
X9665468Y-15148774D01*
X9665468Y-15148774D02*
X9665468Y-15196393D01*
X9665468Y-15196393D02*
X9655944Y-15234488D01*
X9655944Y-15234488D02*
X9646420Y-15253536D01*
X9646420Y-15253536D02*
X9636896Y-15263060D01*
X9636896Y-15263060D02*
X9617849Y-15272584D01*
X9617849Y-15272584D02*
X9598801Y-15272584D01*
X9598801Y-15272584D02*
X9579753Y-15263060D01*
X9579753Y-15263060D02*
X9570229Y-15253536D01*
X9570229Y-15253536D02*
X9560706Y-15234488D01*
X9560706Y-15234488D02*
X9551182Y-15196393D01*
X9551182Y-15196393D02*
X9551182Y-15148774D01*
X9551182Y-15148774D02*
X9560706Y-15110679D01*
X9560706Y-15110679D02*
X9570229Y-15091631D01*
X9570229Y-15091631D02*
X9579753Y-15082108D01*
X9579753Y-15082108D02*
X9598801Y-15072584D01*
X9836896Y-15072584D02*
X9798801Y-15072584D01*
X9798801Y-15072584D02*
X9779753Y-15082108D01*
X9779753Y-15082108D02*
X9770229Y-15091631D01*
X9770229Y-15091631D02*
X9751182Y-15120203D01*
X9751182Y-15120203D02*
X9741658Y-15158298D01*
X9741658Y-15158298D02*
X9741658Y-15234488D01*
X9741658Y-15234488D02*
X9751182Y-15253536D01*
X9751182Y-15253536D02*
X9760706Y-15263060D01*
X9760706Y-15263060D02*
X9779753Y-15272584D01*
X9779753Y-15272584D02*
X9817849Y-15272584D01*
X9817849Y-15272584D02*
X9836896Y-15263060D01*
X9836896Y-15263060D02*
X9846420Y-15253536D01*
X9846420Y-15253536D02*
X9855944Y-15234488D01*
X9855944Y-15234488D02*
X9855944Y-15186869D01*
X9855944Y-15186869D02*
X9846420Y-15167822D01*
X9846420Y-15167822D02*
X9836896Y-15158298D01*
X9836896Y-15158298D02*
X9817849Y-15148774D01*
X9817849Y-15148774D02*
X9779753Y-15148774D01*
X9779753Y-15148774D02*
X9760706Y-15158298D01*
X9760706Y-15158298D02*
X9751182Y-15167822D01*
X9751182Y-15167822D02*
X9741658Y-15186869D01*
X9932134Y-15072584D02*
X9932134Y-15110679D01*
X10008325Y-15072584D02*
X10008325Y-15110679D01*
X10303563Y-15348774D02*
X10294039Y-15339250D01*
X10294039Y-15339250D02*
X10274991Y-15310679D01*
X10274991Y-15310679D02*
X10265468Y-15291631D01*
X10265468Y-15291631D02*
X10255944Y-15263060D01*
X10255944Y-15263060D02*
X10246420Y-15215441D01*
X10246420Y-15215441D02*
X10246420Y-15177346D01*
X10246420Y-15177346D02*
X10255944Y-15129727D01*
X10255944Y-15129727D02*
X10265468Y-15101155D01*
X10265468Y-15101155D02*
X10274991Y-15082108D01*
X10274991Y-15082108D02*
X10294039Y-15053536D01*
X10294039Y-15053536D02*
X10303563Y-15044012D01*
X10370230Y-15091631D02*
X10379753Y-15082108D01*
X10379753Y-15082108D02*
X10398801Y-15072584D01*
X10398801Y-15072584D02*
X10446420Y-15072584D01*
X10446420Y-15072584D02*
X10465468Y-15082108D01*
X10465468Y-15082108D02*
X10474991Y-15091631D01*
X10474991Y-15091631D02*
X10484515Y-15110679D01*
X10484515Y-15110679D02*
X10484515Y-15129727D01*
X10484515Y-15129727D02*
X10474991Y-15158298D01*
X10474991Y-15158298D02*
X10360706Y-15272584D01*
X10360706Y-15272584D02*
X10484515Y-15272584D01*
X10722611Y-15272584D02*
X10722611Y-15072584D01*
X10808325Y-15272584D02*
X10808325Y-15167822D01*
X10808325Y-15167822D02*
X10798801Y-15148774D01*
X10798801Y-15148774D02*
X10779753Y-15139250D01*
X10779753Y-15139250D02*
X10751182Y-15139250D01*
X10751182Y-15139250D02*
X10732134Y-15148774D01*
X10732134Y-15148774D02*
X10722611Y-15158298D01*
X10932134Y-15272584D02*
X10913087Y-15263060D01*
X10913087Y-15263060D02*
X10903563Y-15253536D01*
X10903563Y-15253536D02*
X10894039Y-15234488D01*
X10894039Y-15234488D02*
X10894039Y-15177346D01*
X10894039Y-15177346D02*
X10903563Y-15158298D01*
X10903563Y-15158298D02*
X10913087Y-15148774D01*
X10913087Y-15148774D02*
X10932134Y-15139250D01*
X10932134Y-15139250D02*
X10960706Y-15139250D01*
X10960706Y-15139250D02*
X10979753Y-15148774D01*
X10979753Y-15148774D02*
X10989277Y-15158298D01*
X10989277Y-15158298D02*
X10998801Y-15177346D01*
X10998801Y-15177346D02*
X10998801Y-15234488D01*
X10998801Y-15234488D02*
X10989277Y-15253536D01*
X10989277Y-15253536D02*
X10979753Y-15263060D01*
X10979753Y-15263060D02*
X10960706Y-15272584D01*
X10960706Y-15272584D02*
X10932134Y-15272584D01*
X11113087Y-15272584D02*
X11094039Y-15263060D01*
X11094039Y-15263060D02*
X11084515Y-15244012D01*
X11084515Y-15244012D02*
X11084515Y-15072584D01*
X11265468Y-15263060D02*
X11246420Y-15272584D01*
X11246420Y-15272584D02*
X11208325Y-15272584D01*
X11208325Y-15272584D02*
X11189277Y-15263060D01*
X11189277Y-15263060D02*
X11179753Y-15244012D01*
X11179753Y-15244012D02*
X11179753Y-15167822D01*
X11179753Y-15167822D02*
X11189277Y-15148774D01*
X11189277Y-15148774D02*
X11208325Y-15139250D01*
X11208325Y-15139250D02*
X11246420Y-15139250D01*
X11246420Y-15139250D02*
X11265468Y-15148774D01*
X11265468Y-15148774D02*
X11274991Y-15167822D01*
X11274991Y-15167822D02*
X11274991Y-15186869D01*
X11274991Y-15186869D02*
X11179753Y-15205917D01*
X11351182Y-15263060D02*
X11370230Y-15272584D01*
X11370230Y-15272584D02*
X11408325Y-15272584D01*
X11408325Y-15272584D02*
X11427372Y-15263060D01*
X11427372Y-15263060D02*
X11436896Y-15244012D01*
X11436896Y-15244012D02*
X11436896Y-15234488D01*
X11436896Y-15234488D02*
X11427372Y-15215441D01*
X11427372Y-15215441D02*
X11408325Y-15205917D01*
X11408325Y-15205917D02*
X11379753Y-15205917D01*
X11379753Y-15205917D02*
X11360706Y-15196393D01*
X11360706Y-15196393D02*
X11351182Y-15177346D01*
X11351182Y-15177346D02*
X11351182Y-15167822D01*
X11351182Y-15167822D02*
X11360706Y-15148774D01*
X11360706Y-15148774D02*
X11379753Y-15139250D01*
X11379753Y-15139250D02*
X11408325Y-15139250D01*
X11408325Y-15139250D02*
X11427372Y-15148774D01*
X11503563Y-15348774D02*
X11513087Y-15339250D01*
X11513087Y-15339250D02*
X11532134Y-15310679D01*
X11532134Y-15310679D02*
X11541658Y-15291631D01*
X11541658Y-15291631D02*
X11551182Y-15263060D01*
X11551182Y-15263060D02*
X11560706Y-15215441D01*
X11560706Y-15215441D02*
X11560706Y-15177346D01*
X11560706Y-15177346D02*
X11551182Y-15129727D01*
X11551182Y-15129727D02*
X11541658Y-15101155D01*
X11541658Y-15101155D02*
X11532134Y-15082108D01*
X11532134Y-15082108D02*
X11513087Y-15053536D01*
X11513087Y-15053536D02*
X11503563Y-15044012D01*
M02*
