%TF.GenerationSoftware,KiCad,Pcbnew,8.0.2-1*%
%TF.CreationDate,2025-02-24T08:21:50+03:00*%
%TF.ProjectId,PFC_CAN,5046435f-4341-44e2-9e6b-696361645f70,rev?*%
%TF.SameCoordinates,Original*%
%TF.FileFunction,Soldermask,Top*%
%TF.FilePolarity,Negative*%
%FSLAX46Y46*%
G04 Gerber Fmt 4.6, Leading zero omitted, Abs format (unit mm)*
G04 Created by KiCad (PCBNEW 8.0.2-1) date 2025-02-24 08:21:50*
%MOMM*%
%LPD*%
G01*
G04 APERTURE LIST*
G04 Aperture macros list*
%AMRoundRect*
0 Rectangle with rounded corners*
0 $1 Rounding radius*
0 $2 $3 $4 $5 $6 $7 $8 $9 X,Y pos of 4 corners*
0 Add a 4 corners polygon primitive as box body*
4,1,4,$2,$3,$4,$5,$6,$7,$8,$9,$2,$3,0*
0 Add four circle primitives for the rounded corners*
1,1,$1+$1,$2,$3*
1,1,$1+$1,$4,$5*
1,1,$1+$1,$6,$7*
1,1,$1+$1,$8,$9*
0 Add four rect primitives between the rounded corners*
20,1,$1+$1,$2,$3,$4,$5,0*
20,1,$1+$1,$4,$5,$6,$7,0*
20,1,$1+$1,$6,$7,$8,$9,0*
20,1,$1+$1,$8,$9,$2,$3,0*%
G04 Aperture macros list end*
%ADD10RoundRect,0.250001X1.399999X-1.099999X1.399999X1.099999X-1.399999X1.099999X-1.399999X-1.099999X0*%
%ADD11O,3.300000X2.700000*%
%ADD12C,0.500000*%
%ADD13C,2.286000*%
%ADD14R,1.700000X1.700000*%
%ADD15O,1.700000X1.700000*%
%ADD16RoundRect,0.102000X0.704000X-0.704000X0.704000X0.704000X-0.704000X0.704000X-0.704000X-0.704000X0*%
%ADD17C,1.612000*%
%ADD18O,1.434000X2.934000*%
%ADD19O,2.934000X1.434000*%
%ADD20O,1.727200X1.727200*%
G04 APERTURE END LIST*
D10*
%TO.C,CAN BUS*%
X100655999Y-120142000D03*
D11*
X100656000Y-115942000D03*
X100655999Y-111742000D03*
X105156000Y-120142000D03*
X105155999Y-115942000D03*
X105156000Y-111742000D03*
%TD*%
D12*
%TO.C,CAN*%
X87122000Y-97028000D03*
D13*
X86912000Y-78077999D03*
X84112000Y-97278000D03*
X84062000Y-78128000D03*
X81232000Y-78118000D03*
X81212000Y-97278000D03*
X78462000Y-78128000D03*
D12*
X78342000Y-97148000D03*
%TD*%
D14*
%TO.C,REF\u002A\u002A*%
X106685000Y-107442000D03*
D15*
X104145000Y-107442000D03*
%TD*%
D16*
%TO.C,REF\u002A\u002A*%
X102068000Y-81406000D03*
D17*
X102068000Y-79306000D03*
X102068000Y-86106000D03*
X99568000Y-79306000D03*
X99568000Y-86106000D03*
D18*
X105868000Y-82706000D03*
D19*
X105068000Y-89456000D03*
X105068000Y-75956000D03*
%TD*%
D20*
%TO.C,ESP*%
X69296000Y-80729200D03*
X69296000Y-83269200D03*
X69296000Y-85809200D03*
X69296000Y-88349200D03*
X69296000Y-90889200D03*
X69296000Y-93429200D03*
X69296000Y-95969200D03*
X69296000Y-98509200D03*
X69296000Y-101049200D03*
X69296000Y-103589200D03*
X69296000Y-106129200D03*
X69296000Y-108669200D03*
X69296000Y-111209200D03*
X69296000Y-113749200D03*
X69296000Y-116289200D03*
X95296000Y-116357000D03*
X95296000Y-113690000D03*
X95296000Y-111150000D03*
X95296000Y-108610000D03*
X95296000Y-106070000D03*
X95296000Y-103530000D03*
X95296000Y-100990000D03*
X95296000Y-98450000D03*
X95296000Y-95910000D03*
X95296000Y-93370000D03*
X95296000Y-90830000D03*
X95296000Y-88290000D03*
X95296000Y-85750000D03*
X95296000Y-83210000D03*
X95296000Y-80670000D03*
%TD*%
M02*
